<svg xmlns="http://www.w3.org/2000/svg" viewBox="0 0 118.9 11.64"><defs><style>.cls-1{fill:#b5b5ac;}.cls-2{fill:#575751;}</style></defs><g id="Calque_2" data-name="Calque 2"><g id="Calque_1-2" data-name="Calque 1"><polygon class="cls-1" points="1.12 6 2.38 6 2.38 7.41 3.76 7.41 3.76 8.82 5.66 8.82 5.66 10.23 7.45 10.23 7.45 11.64 8.53 11.64 9.64 11.64 9.64 10.23 11.42 10.23 11.42 8.82 13.32 8.82 13.32 7.41 14.7 7.41 14.7 6 15.96 6 15.96 4.58 17.17 4.58 17.17 3.17 15.86 3.17 15.86 1.76 14.56 1.76 14.56 0.34 10.93 0.34 10.93 1.76 9.64 1.76 9.64 3.17 8.53 3.17 7.34 3.17 7.34 1.76 6.05 1.76 6.05 0.34 2.41 0.34 2.41 1.76 1.12 1.76 1.12 3.17 0 3.17 0 4.58 1.12 4.58 1.12 6"/><polygon class="cls-1" points="21.46 6 22.73 6 22.73 7.41 24.11 7.41 24.11 8.82 26 8.82 26 10.23 27.79 10.23 27.79 11.64 28.87 11.64 29.98 11.64 29.98 10.23 31.77 10.23 31.77 8.82 33.67 8.82 33.67 7.41 35.04 7.41 35.04 6 36.31 6 36.31 4.58 37.52 4.58 37.52 3.17 36.21 3.17 36.21 1.76 34.91 1.76 34.91 0.34 31.28 0.34 31.28 1.76 29.98 1.76 29.98 3.17 28.87 3.17 27.69 3.17 27.69 1.76 26.39 1.76 26.39 0.34 22.76 0.34 22.76 1.76 21.46 1.76 21.46 3.17 20.34 3.17 20.34 4.58 21.46 4.58 21.46 6"/><polygon class="cls-1" points="41.81 6 43.07 6 43.07 7.41 44.45 7.41 44.45 8.82 46.35 8.82 46.35 10.23 48.14 10.23 48.14 11.64 49.22 11.64 50.33 11.64 50.33 10.23 52.11 10.23 52.11 8.82 54.01 8.82 54.01 7.41 55.39 7.41 55.39 6 56.66 6 56.66 4.58 57.86 4.58 57.86 3.17 56.55 3.17 56.55 1.76 55.26 1.76 55.26 0.34 51.62 0.34 51.62 1.76 50.33 1.76 50.33 3.17 49.22 3.17 48.03 3.17 48.03 1.76 46.74 1.76 46.74 0.34 43.1 0.34 43.1 1.76 41.81 1.76 41.81 3.17 40.69 3.17 40.69 4.58 41.81 4.58 41.81 6"/><polygon class="cls-1" points="62.15 6 63.42 6 63.42 7.41 64.8 7.41 64.8 8.82 66.69 8.82 66.69 10.23 68.48 10.23 68.48 11.64 69.56 11.64 70.67 11.64 70.67 10.23 72.46 10.23 72.46 8.82 74.36 8.82 74.36 7.41 75.73 7.41 75.73 6 77 6 77 4.58 78.21 4.58 78.21 3.17 76.9 3.17 76.9 1.76 75.6 1.76 75.6 0.34 71.97 0.34 71.97 1.76 70.67 1.76 70.67 3.17 69.56 3.17 68.38 3.17 68.38 1.76 67.08 1.76 67.08 0.34 63.45 0.34 63.45 1.76 62.15 1.76 62.15 3.17 61.03 3.17 61.03 4.58 62.15 4.58 62.15 6"/><polygon class="cls-1" points="82.5 6 83.76 6 83.76 7.41 85.14 7.41 85.14 8.82 87.04 8.82 87.04 10.23 88.83 10.23 88.83 11.64 89.91 11.64 91.02 11.64 91.02 10.23 92.8 10.23 92.8 8.82 94.7 8.82 94.7 7.41 96.08 7.41 96.08 6 97.34 6 97.34 4.58 98.55 4.58 98.55 3.17 97.24 3.17 97.24 1.76 95.94 1.76 95.94 0.34 92.31 0.34 92.31 1.76 91.02 1.76 91.02 3.17 89.91 3.17 88.72 3.17 88.72 1.76 87.43 1.76 87.43 0.34 83.79 0.34 83.79 1.76 82.5 1.76 82.5 3.17 81.38 3.17 81.38 4.58 82.5 4.58 82.5 6"/><polygon class="cls-1" points="102.84 6 104.11 6 104.11 7.41 105.49 7.41 105.49 8.82 107.39 8.82 107.39 10.23 109.17 10.23 109.17 11.64 110.25 11.64 111.36 11.64 111.36 10.23 113.15 10.23 113.15 8.82 115.05 8.82 115.05 7.41 116.42 7.41 116.42 6 117.69 6 117.69 4.58 118.9 4.58 118.9 3.17 117.59 3.17 117.59 1.76 116.29 1.76 116.29 0.34 112.66 0.34 112.66 1.76 111.36 1.76 111.36 3.17 110.25 3.17 109.07 3.17 109.07 1.76 107.77 1.76 107.77 0.34 104.14 0.34 104.14 1.76 102.84 1.76 102.84 3.17 101.72 3.17 101.72 4.58 102.84 4.58 102.84 6"/><polygon class="cls-2" points="1.12 5.65 2.38 5.65 2.38 7.06 3.76 7.06 3.76 8.47 5.66 8.47 5.66 9.89 7.45 9.89 7.45 11.3 8.53 11.3 9.64 11.3 9.64 9.89 11.42 9.89 11.42 8.47 13.32 8.47 13.32 7.06 14.7 7.06 14.7 5.65 15.96 5.65 15.96 4.24 17.17 4.24 17.17 2.83 15.86 2.83 15.86 1.41 14.56 1.41 14.56 0 10.93 0 10.93 1.41 9.64 1.41 9.64 2.83 8.53 2.83 7.34 2.83 7.34 1.41 6.05 1.41 6.05 0 2.41 0 2.41 1.41 1.12 1.41 1.12 2.83 0 2.83 0 4.24 1.12 4.24 1.12 5.65"/><polygon class="cls-2" points="21.46 5.65 22.73 5.65 22.73 7.06 24.11 7.06 24.11 8.47 26 8.47 26 9.89 27.79 9.89 27.79 11.3 28.87 11.3 29.98 11.3 29.98 9.89 31.77 9.89 31.77 8.47 33.67 8.47 33.67 7.06 35.04 7.06 35.04 5.65 36.31 5.65 36.31 4.24 37.52 4.24 37.52 2.83 36.21 2.83 36.21 1.41 34.91 1.41 34.91 0 31.28 0 31.28 1.41 29.98 1.41 29.98 2.83 28.87 2.83 27.69 2.83 27.69 1.41 26.39 1.41 26.39 0 22.76 0 22.76 1.41 21.46 1.41 21.46 2.83 20.34 2.83 20.34 4.24 21.46 4.24 21.46 5.65"/><polygon class="cls-2" points="41.81 5.65 43.07 5.65 43.07 7.06 44.45 7.06 44.45 8.47 46.35 8.47 46.35 9.89 48.14 9.89 48.14 11.3 49.22 11.3 50.33 11.3 50.33 9.89 52.11 9.89 52.11 8.47 54.01 8.47 54.01 7.06 55.39 7.06 55.39 5.65 56.66 5.65 56.66 4.24 57.86 4.24 57.86 2.83 56.55 2.83 56.55 1.41 55.26 1.41 55.26 0 51.62 0 51.62 1.41 50.33 1.41 50.33 2.83 49.22 2.83 48.03 2.83 48.03 1.41 46.74 1.41 46.74 0 43.1 0 43.1 1.41 41.81 1.41 41.81 2.83 40.69 2.83 40.69 4.24 41.81 4.24 41.81 5.65"/><polygon class="cls-2" points="21.48 5.65 22.75 5.65 22.75 7.06 24.12 7.06 24.12 8.47 26.02 8.47 26.02 9.89 27.81 9.89 27.81 11.3 28.89 11.3 30 11.3 30 9.89 31.79 9.89 31.79 8.47 33.68 8.47 33.68 7.06 35.06 7.06 35.06 5.65 36.33 5.65 36.33 4.24 37.54 4.24 37.54 2.83 36.22 2.83 36.22 1.41 34.93 1.41 34.93 0 31.3 0 31.3 1.41 30 1.41 30 2.83 28.89 2.83 27.7 2.83 27.7 1.41 26.41 1.41 26.41 0 22.78 0 22.78 1.41 21.48 1.41 21.48 2.83 20.36 2.83 20.36 4.24 21.48 4.24 21.48 5.65"/><polygon class="cls-2" points="41.82 5.65 43.09 5.65 43.09 7.06 44.47 7.06 44.47 8.47 46.37 8.47 46.37 9.89 48.15 9.89 48.15 11.3 49.24 11.3 50.34 11.3 50.34 9.89 52.13 9.89 52.13 8.47 54.03 8.47 54.03 7.06 55.41 7.06 55.41 5.65 56.67 5.65 56.67 4.24 57.88 4.24 57.88 2.83 56.57 2.83 56.57 1.41 55.27 1.41 55.27 0 51.64 0 51.64 1.41 50.34 1.41 50.34 2.83 49.24 2.83 48.05 2.83 48.05 1.41 46.75 1.41 46.75 0 43.12 0 43.12 1.41 41.83 1.41 41.83 2.83 40.71 2.83 40.71 4.24 41.82 4.24 41.82 5.65"/><polygon class="cls-2" points="62.17 5.65 63.44 5.65 63.44 7.06 64.81 7.06 64.81 8.47 66.71 8.47 66.71 9.89 68.5 9.89 68.5 11.3 69.58 11.3 70.69 11.3 70.69 9.89 72.47 9.89 72.47 8.47 74.37 8.47 74.37 7.06 75.75 7.06 75.75 5.65 77.02 5.65 77.02 4.24 78.23 4.24 78.23 2.83 76.91 2.83 76.91 1.41 75.62 1.41 75.62 0 71.98 0 71.98 1.41 70.69 1.41 70.69 2.83 69.58 2.83 68.39 2.83 68.39 1.41 67.1 1.41 67.1 0 63.47 0 63.47 1.41 62.17 1.41 62.17 2.83 61.05 2.83 61.05 4.24 62.17 4.24 62.17 5.65"/></g></g></svg>