<svg xmlns="http://www.w3.org/2000/svg" viewBox="0 0 210.72 142.27"><defs><style>.cls-1{font-size:8px;font-family:Montserrat-Bold, Montserrat;font-weight:700;}.cls-1,.cls-12{fill:#575751;}.cls-2{fill:#b5b5ac;}.cls-3{letter-spacing:-0.01em;}.cls-4{letter-spacing:0em;}.cls-5{letter-spacing:-0.01em;}.cls-6{letter-spacing:0em;}.cls-7{letter-spacing:-0.02em;}.cls-8{letter-spacing:-0.05em;}.cls-9{letter-spacing:0.01em;}.cls-10{letter-spacing:-0.01em;}.cls-11{letter-spacing:-0.01em;}.cls-13{letter-spacing:-0.01em;}.cls-14{letter-spacing:-0.02em;}.cls-15{letter-spacing:0.01em;}</style></defs><g id="Calque_2" data-name="Calque 2"><g id="Calque_1-2" data-name="Calque 1"><text class="cls-1" transform="translate(0.74 6.8)">HTML5</text><polygon class="cls-2" points="92.94 6.05 94.2 6.05 94.2 7.46 95.58 7.46 95.58 8.87 97.48 8.87 97.48 10.29 99.27 10.29 99.27 11.7 100.35 11.7 101.45 11.7 101.45 10.29 103.24 10.29 103.24 8.87 105.14 8.87 105.14 7.46 106.52 7.46 106.52 6.05 107.78 6.05 107.78 4.64 108.99 4.64 108.99 3.22 107.68 3.22 107.68 1.81 106.38 1.81 106.38 0.4 102.75 0.4 102.75 1.81 101.45 1.81 101.45 3.22 100.35 3.22 99.16 3.22 99.16 1.81 97.86 1.81 97.86 0.4 94.23 0.4 94.23 1.81 92.94 1.81 92.94 3.22 91.82 3.22 91.82 4.64 92.94 4.64 92.94 6.05"/><polygon class="cls-2" points="113.28 6.05 114.55 6.05 114.55 7.46 115.93 7.46 115.93 8.87 117.82 8.87 117.82 10.29 119.61 10.29 119.61 11.7 120.69 11.7 121.8 11.7 121.8 10.29 123.59 10.29 123.59 8.87 125.48 8.87 125.48 7.46 126.86 7.46 126.86 6.05 128.13 6.05 128.13 4.64 129.34 4.64 129.34 3.22 128.03 3.22 128.03 1.81 126.73 1.81 126.73 0.4 123.1 0.4 123.1 1.81 121.8 1.81 121.8 3.22 120.69 3.22 119.51 3.22 119.51 1.81 118.21 1.81 118.21 0.4 114.58 0.4 114.58 1.81 113.28 1.81 113.28 3.22 112.16 3.22 112.16 4.64 113.28 4.64 113.28 6.05"/><polygon class="cls-2" points="133.63 6.05 134.89 6.05 134.89 7.46 136.27 7.46 136.27 8.87 138.17 8.87 138.17 10.29 139.96 10.29 139.96 11.7 141.04 11.7 142.15 11.7 142.15 10.29 143.93 10.29 143.93 8.87 145.83 8.87 145.83 7.46 147.21 7.46 147.21 6.05 148.47 6.05 148.47 4.64 149.68 4.64 149.68 3.22 148.37 3.22 148.37 1.81 147.07 1.81 147.07 0.4 143.44 0.4 143.44 1.81 142.15 1.81 142.15 3.22 141.04 3.22 139.85 3.22 139.85 1.81 138.56 1.81 138.56 0.4 134.92 0.4 134.92 1.81 133.63 1.81 133.63 3.22 132.51 3.22 132.51 4.64 133.63 4.64 133.63 6.05"/><polygon class="cls-2" points="153.97 6.05 155.24 6.05 155.24 7.46 156.62 7.46 156.62 8.87 158.51 8.87 158.51 10.29 160.3 10.29 160.3 11.7 161.38 11.7 162.49 11.7 162.49 10.29 164.28 10.29 164.28 8.87 166.17 8.87 166.17 7.46 167.55 7.46 167.55 6.05 168.82 6.05 168.82 4.64 170.03 4.64 170.03 3.22 168.72 3.22 168.72 1.81 167.42 1.81 167.42 0.4 163.79 0.4 163.79 1.81 162.49 1.81 162.49 3.22 161.38 3.22 160.2 3.22 160.2 1.81 158.9 1.81 158.9 0.4 155.27 0.4 155.27 1.81 153.97 1.81 153.97 3.22 152.85 3.22 152.85 4.64 153.97 4.64 153.97 6.05"/><polygon class="cls-2" points="174.32 6.05 175.58 6.05 175.58 7.46 176.96 7.46 176.96 8.87 178.86 8.87 178.86 10.29 180.65 10.29 180.65 11.7 181.73 11.7 182.84 11.7 182.84 10.29 184.62 10.29 184.62 8.87 186.52 8.87 186.52 7.46 187.9 7.46 187.9 6.05 189.16 6.05 189.16 4.64 190.37 4.64 190.37 3.22 189.06 3.22 189.06 1.81 187.76 1.81 187.76 0.4 184.13 0.4 184.13 1.81 182.84 1.81 182.84 3.22 181.73 3.22 180.54 3.22 180.54 1.81 179.24 1.81 179.24 0.4 175.61 0.4 175.61 1.81 174.32 1.81 174.32 3.22 173.2 3.22 173.2 4.64 174.32 4.64 174.32 6.05"/><polygon class="cls-2" points="194.66 6.05 195.93 6.05 195.93 7.46 197.31 7.46 197.31 8.87 199.2 8.87 199.2 10.29 200.99 10.29 200.99 11.7 202.07 11.7 203.18 11.7 203.18 10.29 204.97 10.29 204.97 8.87 206.86 8.87 206.86 7.46 208.24 7.46 208.24 6.05 209.51 6.05 209.51 4.64 210.72 4.64 210.72 3.22 209.41 3.22 209.41 1.81 208.11 1.81 208.11 0.4 204.48 0.4 204.48 1.81 203.18 1.81 203.18 3.22 202.07 3.22 200.89 3.22 200.89 1.81 199.59 1.81 199.59 0.4 195.96 0.4 195.96 1.81 194.66 1.81 194.66 3.22 193.54 3.22 193.54 4.64 194.66 4.64 194.66 6.05"/><text class="cls-1" transform="translate(0.74 26.99)"><tspan class="cls-3">C</tspan><tspan x="5.82" y="0">S</tspan><tspan class="cls-4" x="10.92" y="0">S</tspan><tspan x="15.99" y="0">3</tspan></text><polygon class="cls-2" points="92.94 26.24 94.2 26.24 94.2 27.65 95.58 27.65 95.58 29.07 97.48 29.07 97.48 30.48 99.27 30.48 99.27 31.89 100.35 31.89 101.45 31.89 101.45 30.48 103.24 30.48 103.24 29.07 105.14 29.07 105.14 27.65 106.52 27.65 106.52 26.24 107.78 26.24 107.78 24.83 108.99 24.83 108.99 23.41 107.68 23.41 107.68 22 106.38 22 106.38 20.59 102.75 20.59 102.75 22 101.45 22 101.45 23.41 100.35 23.41 99.16 23.41 99.16 22 97.86 22 97.86 20.59 94.23 20.59 94.23 22 92.94 22 92.94 23.41 91.82 23.41 91.82 24.83 92.94 24.83 92.94 26.24"/><polygon class="cls-2" points="113.28 26.24 114.55 26.24 114.55 27.65 115.93 27.65 115.93 29.07 117.82 29.07 117.82 30.48 119.61 30.48 119.61 31.89 120.69 31.89 121.8 31.89 121.8 30.48 123.59 30.48 123.59 29.07 125.48 29.07 125.48 27.65 126.86 27.65 126.86 26.24 128.13 26.24 128.13 24.83 129.34 24.83 129.34 23.41 128.03 23.41 128.03 22 126.73 22 126.73 20.59 123.1 20.59 123.1 22 121.8 22 121.8 23.41 120.69 23.41 119.51 23.41 119.51 22 118.21 22 118.21 20.59 114.58 20.59 114.58 22 113.28 22 113.28 23.41 112.16 23.41 112.16 24.83 113.28 24.83 113.28 26.24"/><polygon class="cls-2" points="133.63 26.24 134.89 26.24 134.89 27.65 136.27 27.65 136.27 29.07 138.17 29.07 138.17 30.48 139.96 30.48 139.96 31.89 141.04 31.89 142.15 31.89 142.15 30.48 143.93 30.48 143.93 29.07 145.83 29.07 145.83 27.65 147.21 27.65 147.21 26.24 148.47 26.24 148.47 24.83 149.68 24.83 149.68 23.41 148.37 23.41 148.37 22 147.07 22 147.07 20.59 143.44 20.59 143.44 22 142.15 22 142.15 23.41 141.04 23.41 139.85 23.41 139.85 22 138.56 22 138.56 20.59 134.92 20.59 134.92 22 133.63 22 133.63 23.41 132.51 23.41 132.51 24.83 133.63 24.83 133.63 26.24"/><polygon class="cls-2" points="153.97 26.24 155.24 26.24 155.24 27.65 156.62 27.65 156.62 29.07 158.51 29.07 158.51 30.48 160.3 30.48 160.3 31.89 161.38 31.89 162.49 31.89 162.49 30.48 164.28 30.48 164.28 29.07 166.17 29.07 166.17 27.65 167.55 27.65 167.55 26.24 168.82 26.24 168.82 24.83 170.03 24.83 170.03 23.41 168.72 23.41 168.72 22 167.42 22 167.42 20.59 163.79 20.59 163.79 22 162.49 22 162.49 23.41 161.38 23.41 160.2 23.41 160.2 22 158.9 22 158.9 20.59 155.27 20.59 155.27 22 153.97 22 153.97 23.41 152.85 23.41 152.85 24.83 153.97 24.83 153.97 26.24"/><polygon class="cls-2" points="174.32 26.24 175.58 26.24 175.58 27.65 176.96 27.65 176.96 29.07 178.86 29.07 178.86 30.48 180.65 30.48 180.65 31.89 181.73 31.89 182.84 31.89 182.84 30.48 184.62 30.48 184.62 29.07 186.52 29.07 186.52 27.65 187.9 27.65 187.9 26.24 189.16 26.24 189.16 24.83 190.37 24.83 190.37 23.41 189.06 23.41 189.06 22 187.76 22 187.76 20.59 184.13 20.59 184.13 22 182.84 22 182.84 23.41 181.73 23.41 180.54 23.41 180.54 22 179.24 22 179.24 20.59 175.61 20.59 175.61 22 174.32 22 174.32 23.41 173.2 23.41 173.2 24.83 174.32 24.83 174.32 26.24"/><polygon class="cls-2" points="194.66 26.24 195.93 26.24 195.93 27.65 197.31 27.65 197.31 29.07 199.2 29.07 199.2 30.48 200.99 30.48 200.99 31.89 202.07 31.89 203.18 31.89 203.18 30.48 204.97 30.48 204.97 29.07 206.86 29.07 206.86 27.65 208.24 27.65 208.24 26.24 209.51 26.24 209.51 24.83 210.72 24.83 210.72 23.41 209.41 23.41 209.41 22 208.11 22 208.11 20.59 204.48 20.59 204.48 22 203.18 22 203.18 23.41 202.07 23.41 200.89 23.41 200.89 22 199.59 22 199.59 20.59 195.96 20.59 195.96 22 194.66 22 194.66 23.41 193.54 23.41 193.54 24.83 194.66 24.83 194.66 26.24"/><text class="cls-1" transform="translate(0.74 87.01)">Illust<tspan class="cls-5" x="20.66" y="0">r</tspan><tspan class="cls-6" x="24.06" y="0">a</tspan><tspan class="cls-7" x="28.99" y="0">t</tspan><tspan x="32.34" y="0">or</tspan></text><polygon class="cls-2" points="92.94 86.26 94.2 86.26 94.2 87.67 95.58 87.67 95.58 89.09 97.48 89.09 97.48 90.5 99.27 90.5 99.27 91.91 100.35 91.91 101.45 91.91 101.45 90.5 103.24 90.5 103.24 89.09 105.14 89.09 105.14 87.67 106.52 87.67 106.52 86.26 107.78 86.26 107.78 84.85 108.99 84.85 108.99 83.44 107.68 83.44 107.68 82.03 106.38 82.03 106.38 80.61 102.75 80.61 102.75 82.03 101.45 82.03 101.45 83.44 100.35 83.44 99.16 83.44 99.16 82.03 97.86 82.03 97.86 80.61 94.23 80.61 94.23 82.03 92.94 82.03 92.94 83.44 91.82 83.44 91.82 84.85 92.94 84.85 92.94 86.26"/><polygon class="cls-2" points="113.28 86.26 114.55 86.26 114.55 87.67 115.93 87.67 115.93 89.09 117.82 89.09 117.82 90.5 119.61 90.5 119.61 91.91 120.69 91.91 121.8 91.91 121.8 90.5 123.59 90.5 123.59 89.09 125.48 89.09 125.48 87.67 126.86 87.67 126.86 86.26 128.13 86.26 128.13 84.85 129.34 84.85 129.34 83.44 128.03 83.44 128.03 82.03 126.73 82.03 126.73 80.61 123.1 80.61 123.1 82.03 121.8 82.03 121.8 83.44 120.69 83.44 119.51 83.44 119.51 82.03 118.21 82.03 118.21 80.61 114.58 80.61 114.58 82.03 113.28 82.03 113.28 83.44 112.16 83.44 112.16 84.85 113.28 84.85 113.28 86.26"/><polygon class="cls-2" points="133.63 86.26 134.89 86.26 134.89 87.67 136.27 87.67 136.27 89.09 138.17 89.09 138.17 90.5 139.96 90.5 139.96 91.91 141.04 91.91 142.15 91.91 142.15 90.5 143.93 90.5 143.93 89.09 145.83 89.09 145.83 87.67 147.21 87.67 147.21 86.26 148.47 86.26 148.47 84.85 149.68 84.85 149.68 83.44 148.37 83.44 148.37 82.03 147.07 82.03 147.07 80.61 143.44 80.61 143.44 82.03 142.15 82.03 142.15 83.44 141.04 83.44 139.85 83.44 139.85 82.03 138.56 82.03 138.56 80.61 134.92 80.61 134.92 82.03 133.63 82.03 133.63 83.44 132.51 83.44 132.51 84.85 133.63 84.85 133.63 86.26"/><polygon class="cls-2" points="153.97 86.26 155.24 86.26 155.24 87.67 156.62 87.67 156.62 89.09 158.51 89.09 158.51 90.5 160.3 90.5 160.3 91.91 161.38 91.91 162.49 91.91 162.49 90.5 164.28 90.5 164.28 89.09 166.17 89.09 166.17 87.67 167.55 87.67 167.55 86.26 168.82 86.26 168.82 84.85 170.03 84.85 170.03 83.44 168.72 83.44 168.72 82.03 167.42 82.03 167.42 80.61 163.79 80.61 163.79 82.03 162.49 82.03 162.49 83.44 161.38 83.44 160.2 83.44 160.2 82.03 158.9 82.03 158.9 80.61 155.27 80.61 155.27 82.03 153.97 82.03 153.97 83.44 152.85 83.44 152.85 84.85 153.97 84.85 153.97 86.26"/><polygon class="cls-2" points="174.32 86.26 175.58 86.26 175.58 87.67 176.96 87.67 176.96 89.09 178.86 89.09 178.86 90.5 180.65 90.5 180.65 91.91 181.73 91.91 182.84 91.91 182.84 90.5 184.62 90.5 184.62 89.09 186.52 89.09 186.52 87.67 187.9 87.67 187.9 86.26 189.16 86.26 189.16 84.85 190.37 84.85 190.37 83.44 189.06 83.44 189.06 82.03 187.76 82.03 187.76 80.61 184.13 80.61 184.13 82.03 182.84 82.03 182.84 83.44 181.73 83.44 180.54 83.44 180.54 82.03 179.24 82.03 179.24 80.61 175.61 80.61 175.61 82.03 174.32 82.03 174.32 83.44 173.2 83.44 173.2 84.85 174.32 84.85 174.32 86.26"/><polygon class="cls-2" points="194.66 86.26 195.93 86.26 195.93 87.67 197.31 87.67 197.31 89.09 199.2 89.09 199.2 90.5 200.99 90.5 200.99 91.91 202.07 91.91 203.18 91.91 203.18 90.5 204.97 90.5 204.97 89.09 206.86 89.09 206.86 87.67 208.24 87.67 208.24 86.26 209.51 86.26 209.51 84.85 210.72 84.85 210.72 83.44 209.41 83.44 209.41 82.03 208.11 82.03 208.11 80.61 204.48 80.61 204.48 82.03 203.18 82.03 203.18 83.44 202.07 83.44 200.89 83.44 200.89 82.03 199.59 82.03 199.59 80.61 195.96 80.61 195.96 82.03 194.66 82.03 194.66 83.44 193.54 83.44 193.54 84.85 194.66 84.85 194.66 86.26"/><text class="cls-1" transform="translate(0 127.15)"><tspan class="cls-8">W</tspan><tspan x="8.86" y="0">oo</tspan><tspan class="cls-5" x="19.34" y="0">c</tspan><tspan class="cls-6" x="24.02" y="0">om</tspan><tspan class="cls-9" x="37.65" y="0">m</tspan><tspan x="46.09" y="0">e</tspan><tspan class="cls-10" x="51.14" y="0">r</tspan><tspan class="cls-11" x="54.51" y="0">c</tspan><tspan x="59.19" y="0">e</tspan></text><polygon class="cls-2" points="92.94 125.86 94.2 125.86 94.2 127.27 95.58 127.27 95.58 128.68 97.48 128.68 97.48 130.1 99.27 130.1 99.27 131.51 100.35 131.51 101.45 131.51 101.45 130.1 103.24 130.1 103.24 128.68 105.14 128.68 105.14 127.27 106.52 127.27 106.52 125.86 107.78 125.86 107.78 124.45 108.99 124.45 108.99 123.03 107.68 123.03 107.68 121.62 106.38 121.62 106.38 120.21 102.75 120.21 102.75 121.62 101.45 121.62 101.45 123.03 100.35 123.03 99.16 123.03 99.16 121.62 97.86 121.62 97.86 120.21 94.23 120.21 94.23 121.62 92.94 121.62 92.94 123.03 91.82 123.03 91.82 124.45 92.94 124.45 92.94 125.86"/><polygon class="cls-2" points="113.28 125.86 114.55 125.86 114.55 127.27 115.93 127.27 115.93 128.68 117.82 128.68 117.82 130.1 119.61 130.1 119.61 131.51 120.69 131.51 121.8 131.51 121.8 130.1 123.59 130.1 123.59 128.68 125.48 128.68 125.48 127.27 126.86 127.27 126.86 125.86 128.13 125.86 128.13 124.45 129.34 124.45 129.34 123.03 128.03 123.03 128.03 121.62 126.73 121.62 126.73 120.21 123.1 120.21 123.1 121.62 121.8 121.62 121.8 123.03 120.69 123.03 119.51 123.03 119.51 121.62 118.21 121.62 118.21 120.21 114.58 120.21 114.58 121.62 113.28 121.62 113.28 123.03 112.16 123.03 112.16 124.45 113.28 124.45 113.28 125.86"/><polygon class="cls-2" points="133.63 125.86 134.89 125.86 134.89 127.27 136.27 127.27 136.27 128.68 138.17 128.68 138.17 130.1 139.96 130.1 139.96 131.51 141.04 131.51 142.15 131.51 142.15 130.1 143.93 130.1 143.93 128.68 145.83 128.68 145.83 127.27 147.21 127.27 147.21 125.86 148.47 125.86 148.47 124.45 149.68 124.45 149.68 123.03 148.37 123.03 148.37 121.62 147.07 121.62 147.07 120.21 143.44 120.21 143.44 121.62 142.15 121.62 142.15 123.03 141.04 123.03 139.85 123.03 139.85 121.62 138.56 121.62 138.56 120.21 134.92 120.21 134.92 121.62 133.63 121.62 133.63 123.03 132.51 123.03 132.51 124.45 133.63 124.45 133.63 125.86"/><polygon class="cls-2" points="153.97 125.86 155.24 125.86 155.24 127.27 156.62 127.27 156.62 128.68 158.51 128.68 158.51 130.1 160.3 130.1 160.3 131.51 161.38 131.51 162.49 131.51 162.49 130.1 164.28 130.1 164.28 128.68 166.17 128.68 166.17 127.27 167.55 127.27 167.55 125.86 168.82 125.86 168.82 124.45 170.03 124.45 170.03 123.03 168.72 123.03 168.72 121.62 167.42 121.62 167.42 120.21 163.79 120.21 163.79 121.62 162.49 121.62 162.49 123.03 161.38 123.03 160.2 123.03 160.2 121.62 158.9 121.62 158.9 120.21 155.27 120.21 155.27 121.62 153.97 121.62 153.97 123.03 152.85 123.03 152.85 124.45 153.97 124.45 153.97 125.86"/><polygon class="cls-2" points="174.32 125.86 175.58 125.86 175.58 127.27 176.96 127.27 176.96 128.68 178.86 128.68 178.86 130.1 180.65 130.1 180.65 131.51 181.73 131.51 182.84 131.51 182.84 130.1 184.62 130.1 184.62 128.68 186.52 128.68 186.52 127.27 187.9 127.27 187.9 125.86 189.16 125.86 189.16 124.45 190.37 124.45 190.37 123.03 189.06 123.03 189.06 121.62 187.76 121.62 187.76 120.21 184.13 120.21 184.13 121.62 182.84 121.62 182.84 123.03 181.73 123.03 180.54 123.03 180.54 121.62 179.24 121.62 179.24 120.21 175.61 120.21 175.61 121.62 174.32 121.62 174.32 123.03 173.2 123.03 173.2 124.45 174.32 124.45 174.32 125.86"/><polygon class="cls-2" points="194.66 125.86 195.93 125.86 195.93 127.27 197.31 127.27 197.31 128.68 199.2 128.68 199.2 130.1 200.99 130.1 200.99 131.51 202.07 131.51 203.18 131.51 203.18 130.1 204.97 130.1 204.97 128.68 206.86 128.68 206.86 127.27 208.24 127.27 208.24 125.86 209.51 125.86 209.51 124.45 210.72 124.45 210.72 123.03 209.41 123.03 209.41 121.62 208.11 121.62 208.11 120.21 204.48 120.21 204.48 121.62 203.18 121.62 203.18 123.03 202.07 123.03 200.89 123.03 200.89 121.62 199.59 121.62 199.59 120.21 195.96 120.21 195.96 121.62 194.66 121.62 194.66 123.03 193.54 123.03 193.54 124.45 194.66 124.45 194.66 125.86"/><polygon class="cls-12" points="92.94 6.05 94.2 6.05 94.2 7.46 95.58 7.46 95.58 8.87 97.48 8.87 97.48 10.29 99.27 10.29 99.27 11.7 100.35 11.7 101.45 11.7 101.45 10.29 103.24 10.29 103.24 8.87 105.14 8.87 105.14 7.46 106.52 7.46 106.52 6.05 107.78 6.05 107.78 4.64 108.99 4.64 108.99 3.22 107.68 3.22 107.68 1.81 106.38 1.81 106.38 0.4 102.75 0.4 102.75 1.81 101.45 1.81 101.45 3.22 100.35 3.22 99.16 3.22 99.16 1.81 97.86 1.81 97.86 0.4 94.23 0.4 94.23 1.81 92.94 1.81 92.94 3.22 91.82 3.22 91.82 4.64 92.94 4.64 92.94 6.05"/><polygon class="cls-12" points="113.28 6.05 114.55 6.05 114.55 7.46 115.93 7.46 115.93 8.87 117.82 8.87 117.82 10.29 119.61 10.29 119.61 11.7 120.69 11.7 121.8 11.7 121.8 10.29 123.59 10.29 123.59 8.87 125.48 8.87 125.48 7.46 126.86 7.46 126.86 6.05 128.13 6.05 128.13 4.64 129.34 4.64 129.34 3.22 128.03 3.22 128.03 1.81 126.73 1.81 126.73 0.4 123.1 0.4 123.1 1.81 121.8 1.81 121.8 3.22 120.69 3.22 119.51 3.22 119.51 1.81 118.21 1.81 118.21 0.4 114.58 0.4 114.58 1.81 113.28 1.81 113.28 3.22 112.16 3.22 112.16 4.64 113.28 4.64 113.28 6.05"/><polygon class="cls-12" points="133.63 6.05 134.89 6.05 134.89 7.46 136.27 7.46 136.27 8.87 138.17 8.87 138.17 10.29 139.96 10.29 139.96 11.7 141.04 11.7 142.15 11.7 142.15 10.29 143.93 10.29 143.93 8.87 145.83 8.87 145.83 7.46 147.21 7.46 147.21 6.05 148.47 6.05 148.47 4.64 149.68 4.64 149.68 3.22 148.37 3.22 148.37 1.81 147.07 1.81 147.07 0.4 143.44 0.4 143.44 1.81 142.15 1.81 142.15 3.22 141.04 3.22 139.85 3.22 139.85 1.81 138.56 1.81 138.56 0.4 134.92 0.4 134.92 1.81 133.63 1.81 133.63 3.22 132.51 3.22 132.51 4.64 133.63 4.64 133.63 6.05"/><polygon class="cls-12" points="153.97 6.05 155.24 6.05 155.24 7.46 156.62 7.46 156.62 8.87 158.51 8.87 158.51 10.29 160.3 10.29 160.3 11.7 161.38 11.7 162.49 11.7 162.49 10.29 164.28 10.29 164.28 8.87 166.17 8.87 166.17 7.46 167.55 7.46 167.55 6.05 168.82 6.05 168.82 4.64 170.03 4.64 170.03 3.22 168.72 3.22 168.72 1.81 167.42 1.81 167.42 0.4 163.79 0.4 163.79 1.81 162.49 1.81 162.49 3.22 161.38 3.22 160.2 3.22 160.2 1.81 158.9 1.81 158.9 0.4 155.27 0.4 155.27 1.81 153.97 1.81 153.97 3.22 152.85 3.22 152.85 4.64 153.97 4.64 153.97 6.05"/><polygon class="cls-12" points="174.32 6.05 175.58 6.05 175.58 7.46 176.96 7.46 176.96 8.87 178.86 8.87 178.86 10.29 180.65 10.29 180.65 11.7 181.73 11.7 182.84 11.7 182.84 10.29 184.62 10.29 184.62 8.87 186.52 8.87 186.52 7.46 187.9 7.46 187.9 6.05 189.16 6.05 189.16 4.64 190.37 4.64 190.37 3.22 189.06 3.22 189.06 1.81 187.76 1.81 187.76 0.4 184.13 0.4 184.13 1.81 182.84 1.81 182.84 3.22 181.73 3.22 180.54 3.22 180.54 1.81 179.24 1.81 179.24 0.4 175.61 0.4 175.61 1.81 174.32 1.81 174.32 3.22 173.2 3.22 173.2 4.64 174.32 4.64 174.32 6.05"/><polygon class="cls-12" points="92.94 85.92 94.2 85.92 94.2 87.33 95.58 87.33 95.58 88.74 97.48 88.74 97.48 90.15 99.27 90.15 99.27 91.57 100.35 91.57 101.45 91.57 101.45 90.15 103.24 90.15 103.24 88.74 105.14 88.74 105.14 87.33 106.52 87.33 106.52 85.92 107.78 85.92 107.78 84.5 108.99 84.5 108.99 83.09 107.68 83.09 107.68 81.68 106.38 81.68 106.38 80.27 102.75 80.27 102.75 81.68 101.45 81.68 101.45 83.09 100.35 83.09 99.16 83.09 99.16 81.68 97.86 81.68 97.86 80.27 94.23 80.27 94.23 81.68 92.94 81.68 92.94 83.09 91.82 83.09 91.82 84.5 92.94 84.5 92.94 85.92"/><polygon class="cls-12" points="113.28 85.92 114.55 85.92 114.55 87.33 115.93 87.33 115.93 88.74 117.82 88.74 117.82 90.15 119.61 90.15 119.61 91.57 120.69 91.57 121.8 91.57 121.8 90.15 123.59 90.15 123.59 88.74 125.48 88.74 125.48 87.33 126.86 87.33 126.86 85.92 128.13 85.92 128.13 84.5 129.34 84.5 129.34 83.09 128.03 83.09 128.03 81.68 126.73 81.68 126.73 80.27 123.1 80.27 123.1 81.68 121.8 81.68 121.8 83.09 120.69 83.09 119.51 83.09 119.51 81.68 118.21 81.68 118.21 80.27 114.58 80.27 114.58 81.68 113.28 81.68 113.28 83.09 112.16 83.09 112.16 84.5 113.28 84.5 113.28 85.92"/><polygon class="cls-12" points="133.63 85.92 134.89 85.92 134.89 87.33 136.27 87.33 136.27 88.74 138.17 88.74 138.17 90.15 139.96 90.15 139.96 91.57 141.04 91.57 142.15 91.57 142.15 90.15 143.93 90.15 143.93 88.74 145.83 88.74 145.83 87.33 147.21 87.33 147.21 85.92 148.47 85.92 148.47 84.5 149.68 84.5 149.68 83.09 148.37 83.09 148.37 81.68 147.07 81.68 147.07 80.27 143.44 80.27 143.44 81.68 142.15 81.68 142.15 83.09 141.04 83.09 139.85 83.09 139.85 81.68 138.56 81.68 138.56 80.27 134.92 80.27 134.92 81.68 133.63 81.68 133.63 83.09 132.51 83.09 132.51 84.5 133.63 84.5 133.63 85.92"/><polygon class="cls-12" points="92.94 125.6 94.2 125.6 94.2 127.02 95.58 127.02 95.58 128.43 97.48 128.43 97.48 129.84 99.27 129.84 99.27 131.25 100.35 131.25 101.45 131.25 101.45 129.84 103.24 129.84 103.24 128.43 105.14 128.43 105.14 127.02 106.52 127.02 106.52 125.6 107.78 125.6 107.78 124.19 108.99 124.19 108.99 122.78 107.68 122.78 107.68 121.37 106.38 121.37 106.38 119.95 102.75 119.95 102.75 121.37 101.45 121.37 101.45 122.78 100.35 122.78 99.16 122.78 99.16 121.37 97.86 121.37 97.86 119.95 94.23 119.95 94.23 121.37 92.94 121.37 92.94 122.78 91.82 122.78 91.82 124.19 92.94 124.19 92.94 125.6"/><polygon class="cls-12" points="113.28 125.6 114.55 125.6 114.55 127.02 115.93 127.02 115.93 128.43 117.82 128.43 117.82 129.84 119.61 129.84 119.61 131.25 120.69 131.25 121.8 131.25 121.8 129.84 123.59 129.84 123.59 128.43 125.48 128.43 125.48 127.02 126.86 127.02 126.86 125.6 128.13 125.6 128.13 124.19 129.34 124.19 129.34 122.78 128.03 122.78 128.03 121.37 126.73 121.37 126.73 119.95 123.1 119.95 123.1 121.37 121.8 121.37 121.8 122.78 120.69 122.78 119.51 122.78 119.51 121.37 118.21 121.37 118.21 119.95 114.58 119.95 114.58 121.37 113.28 121.37 113.28 122.78 112.16 122.78 112.16 124.19 113.28 124.19 113.28 125.6"/><polygon class="cls-12" points="92.94 25.89 94.2 25.89 94.2 27.3 95.58 27.3 95.58 28.71 97.48 28.71 97.48 30.13 99.27 30.13 99.27 31.54 100.35 31.54 101.45 31.54 101.45 30.13 103.24 30.13 103.24 28.71 105.14 28.71 105.14 27.3 106.52 27.3 106.52 25.89 107.78 25.89 107.78 24.48 108.99 24.48 108.99 23.07 107.68 23.07 107.68 21.65 106.38 21.65 106.38 20.24 102.75 20.24 102.75 21.65 101.45 21.65 101.45 23.07 100.35 23.07 99.16 23.07 99.16 21.65 97.86 21.65 97.86 20.24 94.23 20.24 94.23 21.65 92.94 21.65 92.94 23.07 91.82 23.07 91.82 24.48 92.94 24.48 92.94 25.89"/><polygon class="cls-12" points="113.28 25.89 114.55 25.89 114.55 27.3 115.93 27.3 115.93 28.71 117.82 28.71 117.82 30.13 119.61 30.13 119.61 31.54 120.69 31.54 121.8 31.54 121.8 30.13 123.59 30.13 123.59 28.71 125.48 28.71 125.48 27.3 126.86 27.3 126.86 25.89 128.13 25.89 128.13 24.48 129.34 24.48 129.34 23.07 128.03 23.07 128.03 21.65 126.73 21.65 126.73 20.24 123.1 20.24 123.1 21.65 121.8 21.65 121.8 23.07 120.69 23.07 119.51 23.07 119.51 21.65 118.21 21.65 118.21 20.24 114.58 20.24 114.58 21.65 113.28 21.65 113.28 23.07 112.16 23.07 112.16 24.48 113.28 24.48 113.28 25.89"/><polygon class="cls-12" points="133.63 25.89 134.89 25.89 134.89 27.3 136.27 27.3 136.27 28.71 138.17 28.71 138.17 30.13 139.96 30.13 139.96 31.54 141.04 31.54 142.15 31.54 142.15 30.13 143.93 30.13 143.93 28.71 145.83 28.71 145.83 27.3 147.21 27.3 147.21 25.89 148.47 25.89 148.47 24.48 149.68 24.48 149.68 23.07 148.37 23.07 148.37 21.65 147.07 21.65 147.07 20.24 143.44 20.24 143.44 21.65 142.15 21.65 142.15 23.07 141.04 23.07 139.85 23.07 139.85 21.65 138.56 21.65 138.56 20.24 134.92 20.24 134.92 21.65 133.63 21.65 133.63 23.07 132.51 23.07 132.51 24.48 133.63 24.48 133.63 25.89"/><polygon class="cls-12" points="153.97 25.89 155.24 25.89 155.24 27.3 156.62 27.3 156.62 28.71 158.51 28.71 158.51 30.13 160.3 30.13 160.3 31.54 161.38 31.54 162.49 31.54 162.49 30.13 164.28 30.13 164.28 28.71 166.17 28.71 166.17 27.3 167.55 27.3 167.55 25.89 168.82 25.89 168.82 24.48 170.03 24.48 170.03 23.07 168.72 23.07 168.72 21.65 167.42 21.65 167.42 20.24 163.79 20.24 163.79 21.65 162.49 21.65 162.49 23.07 161.38 23.07 160.2 23.07 160.2 21.65 158.9 21.65 158.9 20.24 155.27 20.24 155.27 21.65 153.97 21.65 153.97 23.07 152.85 23.07 152.85 24.48 153.97 24.48 153.97 25.89"/><polygon class="cls-12" points="113.28 26.24 114.55 26.24 114.55 27.65 115.93 27.65 115.93 29.07 117.82 29.07 117.82 30.48 119.61 30.48 119.61 31.89 120.69 31.89 121.8 31.89 121.8 30.48 123.59 30.48 123.59 29.07 125.48 29.07 125.48 27.65 126.86 27.65 126.86 26.24 128.13 26.24 128.13 24.83 129.34 24.83 129.34 23.41 128.03 23.41 128.03 22 126.73 22 126.73 20.59 123.1 20.59 123.1 22 121.8 22 121.8 23.41 120.69 23.41 119.51 23.41 119.51 22 118.21 22 118.21 20.59 114.58 20.59 114.58 22 113.28 22 113.28 23.41 112.16 23.41 112.16 24.83 113.28 24.83 113.28 26.24"/><polygon class="cls-12" points="133.63 26.24 134.89 26.24 134.89 27.65 136.27 27.65 136.27 29.07 138.17 29.07 138.17 30.48 139.96 30.48 139.96 31.89 141.04 31.89 142.15 31.89 142.15 30.48 143.93 30.48 143.93 29.07 145.83 29.07 145.83 27.65 147.21 27.65 147.21 26.24 148.47 26.24 148.47 24.83 149.68 24.83 149.68 23.41 148.37 23.41 148.37 22 147.07 22 147.07 20.59 143.44 20.59 143.44 22 142.15 22 142.15 23.41 141.04 23.41 139.85 23.41 139.85 22 138.56 22 138.56 20.59 134.92 20.59 134.92 22 133.63 22 133.63 23.41 132.51 23.41 132.51 24.83 133.63 24.83 133.63 26.24"/><polygon class="cls-12" points="153.97 26.24 155.24 26.24 155.24 27.65 156.62 27.65 156.62 29.07 158.51 29.07 158.51 30.48 160.3 30.48 160.3 31.89 161.38 31.89 162.49 31.89 162.49 30.48 164.28 30.48 164.28 29.07 166.17 29.07 166.17 27.65 167.55 27.65 167.55 26.24 168.82 26.24 168.82 24.83 170.03 24.83 170.03 23.41 168.72 23.41 168.72 22 167.42 22 167.42 20.59 163.79 20.59 163.79 22 162.49 22 162.49 23.41 161.38 23.41 160.2 23.41 160.2 22 158.9 22 158.9 20.59 155.27 20.59 155.27 22 153.97 22 153.97 23.41 152.85 23.41 152.85 24.83 153.97 24.83 153.97 26.24"/><polygon class="cls-12" points="174.32 26.24 175.58 26.24 175.58 27.65 176.96 27.65 176.96 29.07 178.86 29.07 178.86 30.48 180.65 30.48 180.65 31.89 181.73 31.89 182.84 31.89 182.84 30.48 184.62 30.48 184.62 29.07 186.52 29.07 186.52 27.65 187.9 27.65 187.9 26.24 189.16 26.24 189.16 24.83 190.37 24.83 190.37 23.41 189.06 23.41 189.06 22 187.76 22 187.76 20.59 184.13 20.59 184.13 22 182.84 22 182.84 23.41 181.73 23.41 180.54 23.41 180.54 22 179.24 22 179.24 20.59 175.61 20.59 175.61 22 174.32 22 174.32 23.41 173.2 23.41 173.2 24.83 174.32 24.83 174.32 26.24"/><polygon class="cls-12" points="113.28 125.6 114.55 125.6 114.55 127.02 115.93 127.02 115.93 128.43 117.82 128.43 117.82 129.84 119.61 129.84 119.61 131.25 120.69 131.25 121.8 131.25 121.8 129.84 123.59 129.84 123.59 128.43 125.48 128.43 125.48 127.02 126.86 127.02 126.86 125.6 128.13 125.6 128.13 124.19 129.34 124.19 129.34 122.78 128.03 122.78 128.03 121.37 126.73 121.37 126.73 119.95 123.1 119.95 123.1 121.37 121.8 121.37 121.8 122.78 120.69 122.78 119.51 122.78 119.51 121.37 118.21 121.37 118.21 119.95 114.58 119.95 114.58 121.37 113.28 121.37 113.28 122.78 112.16 122.78 112.16 124.19 113.28 124.19 113.28 125.6"/><polygon class="cls-12" points="133.63 125.6 134.89 125.6 134.89 127.02 136.27 127.02 136.27 128.43 138.17 128.43 138.17 129.84 139.96 129.84 139.96 131.25 141.04 131.25 142.15 131.25 142.15 129.84 143.93 129.84 143.93 128.43 145.83 128.43 145.83 127.02 147.21 127.02 147.21 125.6 148.47 125.6 148.47 124.19 149.68 124.19 149.68 122.78 148.37 122.78 148.37 121.37 147.07 121.37 147.07 119.95 143.44 119.95 143.44 121.37 142.15 121.37 142.15 122.78 141.04 122.78 139.85 122.78 139.85 121.37 138.56 121.37 138.56 119.95 134.92 119.95 134.92 121.37 133.63 121.37 133.63 122.78 132.51 122.78 132.51 124.19 133.63 124.19 133.63 125.6"/><text class="cls-1" transform="translate(0.74 67.23)">P<tspan class="cls-9" x="5.86" y="0">h</tspan><tspan x="11.43" y="0">o</tspan><tspan class="cls-7" x="16.67" y="0">t</tspan><tspan x="20.02" y="0">os</tspan><tspan class="cls-9" x="29.5" y="0">h</tspan><tspan x="35.08" y="0">op</tspan></text><polygon class="cls-2" points="92.94 66.47 94.2 66.47 94.2 67.89 95.58 67.89 95.58 69.3 97.48 69.3 97.48 70.71 99.27 70.71 99.27 72.12 100.35 72.12 101.45 72.12 101.45 70.71 103.24 70.71 103.24 69.3 105.14 69.3 105.14 67.89 106.52 67.89 106.52 66.47 107.78 66.47 107.78 65.06 108.99 65.06 108.99 63.65 107.68 63.65 107.68 62.24 106.38 62.24 106.38 60.83 102.75 60.83 102.75 62.24 101.45 62.24 101.45 63.65 100.35 63.65 99.16 63.65 99.16 62.24 97.86 62.24 97.86 60.83 94.23 60.83 94.23 62.24 92.94 62.24 92.94 63.65 91.82 63.65 91.82 65.06 92.94 65.06 92.94 66.47"/><polygon class="cls-2" points="113.28 66.47 114.55 66.47 114.55 67.89 115.93 67.89 115.93 69.3 117.82 69.3 117.82 70.71 119.61 70.71 119.61 72.12 120.69 72.12 121.8 72.12 121.8 70.71 123.59 70.71 123.59 69.3 125.48 69.3 125.48 67.89 126.86 67.89 126.86 66.47 128.13 66.47 128.13 65.06 129.34 65.06 129.34 63.65 128.03 63.65 128.03 62.24 126.73 62.24 126.73 60.83 123.1 60.83 123.1 62.24 121.8 62.24 121.8 63.65 120.69 63.65 119.51 63.65 119.51 62.24 118.21 62.24 118.21 60.83 114.58 60.83 114.58 62.24 113.28 62.24 113.28 63.65 112.16 63.65 112.16 65.06 113.28 65.06 113.28 66.47"/><polygon class="cls-2" points="133.63 66.47 134.89 66.47 134.89 67.89 136.27 67.89 136.27 69.3 138.17 69.3 138.17 70.71 139.96 70.71 139.96 72.12 141.04 72.12 142.15 72.12 142.15 70.71 143.93 70.71 143.93 69.3 145.83 69.3 145.83 67.89 147.21 67.89 147.21 66.47 148.47 66.47 148.47 65.06 149.68 65.06 149.68 63.65 148.37 63.65 148.37 62.24 147.07 62.24 147.07 60.83 143.44 60.83 143.44 62.24 142.15 62.24 142.15 63.65 141.04 63.65 139.85 63.65 139.85 62.24 138.56 62.24 138.56 60.83 134.92 60.83 134.92 62.24 133.63 62.24 133.63 63.65 132.51 63.65 132.51 65.06 133.63 65.06 133.63 66.47"/><polygon class="cls-2" points="153.97 66.47 155.24 66.47 155.24 67.89 156.62 67.89 156.62 69.3 158.51 69.3 158.51 70.71 160.3 70.71 160.3 72.12 161.38 72.12 162.49 72.12 162.49 70.71 164.28 70.71 164.28 69.3 166.17 69.3 166.17 67.89 167.55 67.89 167.55 66.47 168.82 66.47 168.82 65.06 170.03 65.06 170.03 63.65 168.72 63.65 168.72 62.24 167.42 62.24 167.42 60.83 163.79 60.83 163.79 62.24 162.49 62.24 162.49 63.65 161.38 63.65 160.2 63.65 160.2 62.24 158.9 62.24 158.9 60.83 155.27 60.83 155.27 62.24 153.97 62.24 153.97 63.65 152.85 63.65 152.85 65.06 153.97 65.06 153.97 66.47"/><polygon class="cls-2" points="174.32 66.47 175.58 66.47 175.58 67.89 176.96 67.89 176.96 69.3 178.86 69.3 178.86 70.71 180.65 70.71 180.65 72.12 181.73 72.12 182.84 72.12 182.84 70.71 184.62 70.71 184.62 69.3 186.52 69.3 186.52 67.89 187.9 67.89 187.9 66.47 189.16 66.47 189.16 65.06 190.37 65.06 190.37 63.65 189.06 63.65 189.06 62.24 187.76 62.24 187.76 60.83 184.13 60.83 184.13 62.24 182.84 62.24 182.84 63.65 181.73 63.65 180.54 63.65 180.54 62.24 179.24 62.24 179.24 60.83 175.61 60.83 175.61 62.24 174.32 62.24 174.32 63.65 173.2 63.65 173.2 65.06 174.32 65.06 174.32 66.47"/><polygon class="cls-2" points="194.66 66.47 195.93 66.47 195.93 67.89 197.31 67.89 197.31 69.3 199.2 69.3 199.2 70.71 200.99 70.71 200.99 72.12 202.07 72.12 203.18 72.12 203.18 70.71 204.97 70.71 204.97 69.3 206.86 69.3 206.86 67.89 208.24 67.89 208.24 66.47 209.51 66.47 209.51 65.06 210.72 65.06 210.72 63.65 209.41 63.65 209.41 62.24 208.11 62.24 208.11 60.83 204.48 60.83 204.48 62.24 203.18 62.24 203.18 63.65 202.07 63.65 200.89 63.65 200.89 62.24 199.59 62.24 199.59 60.83 195.96 60.83 195.96 62.24 194.66 62.24 194.66 63.65 193.54 63.65 193.54 65.06 194.66 65.06 194.66 66.47"/><polygon class="cls-12" points="92.94 66.13 94.2 66.13 94.2 67.54 95.58 67.54 95.58 68.95 97.48 68.95 97.48 70.37 99.27 70.37 99.27 71.78 100.35 71.78 101.45 71.78 101.45 70.37 103.24 70.37 103.24 68.95 105.14 68.95 105.14 67.54 106.52 67.54 106.52 66.13 107.78 66.13 107.78 64.72 108.99 64.72 108.99 63.3 107.68 63.3 107.68 61.89 106.38 61.89 106.38 60.48 102.75 60.48 102.75 61.89 101.45 61.89 101.45 63.3 100.35 63.3 99.16 63.3 99.16 61.89 97.86 61.89 97.86 60.48 94.23 60.48 94.23 61.89 92.94 61.89 92.94 63.3 91.82 63.3 91.82 64.72 92.94 64.72 92.94 66.13"/><polygon class="cls-12" points="113.28 66.13 114.55 66.13 114.55 67.54 115.93 67.54 115.93 68.95 117.82 68.95 117.82 70.37 119.61 70.37 119.61 71.78 120.69 71.78 121.8 71.78 121.8 70.37 123.59 70.37 123.59 68.95 125.48 68.95 125.48 67.54 126.86 67.54 126.86 66.13 128.13 66.13 128.13 64.72 129.34 64.72 129.34 63.3 128.03 63.3 128.03 61.89 126.73 61.89 126.73 60.48 123.1 60.48 123.1 61.89 121.8 61.89 121.8 63.3 120.69 63.3 119.51 63.3 119.51 61.89 118.21 61.89 118.21 60.48 114.58 60.48 114.58 61.89 113.28 61.89 113.28 63.3 112.16 63.3 112.16 64.72 113.28 64.72 113.28 66.13"/><polygon class="cls-12" points="133.63 66.13 134.89 66.13 134.89 67.54 136.27 67.54 136.27 68.95 138.17 68.95 138.17 70.37 139.96 70.37 139.96 71.78 141.04 71.78 142.15 71.78 142.15 70.37 143.93 70.37 143.93 68.95 145.83 68.95 145.83 67.54 147.21 67.54 147.21 66.13 148.47 66.13 148.47 64.72 149.68 64.72 149.68 63.3 148.37 63.3 148.37 61.89 147.07 61.89 147.07 60.48 143.44 60.48 143.44 61.89 142.15 61.89 142.15 63.3 141.04 63.3 139.85 63.3 139.85 61.89 138.56 61.89 138.56 60.48 134.92 60.48 134.92 61.89 133.63 61.89 133.63 63.3 132.51 63.3 132.51 64.72 133.63 64.72 133.63 66.13"/><polygon class="cls-12" points="113.3 66.13 114.56 66.13 114.56 67.54 115.94 67.54 115.94 68.95 117.84 68.95 117.84 70.37 119.63 70.37 119.63 71.78 120.71 71.78 121.82 71.78 121.82 70.37 123.6 70.37 123.6 68.95 125.5 68.95 125.5 67.54 126.88 67.54 126.88 66.13 128.15 66.13 128.15 64.72 129.35 64.72 129.35 63.3 128.04 63.3 128.04 61.89 126.75 61.89 126.75 60.48 123.11 60.48 123.11 61.89 121.82 61.89 121.82 63.3 120.71 63.3 119.52 63.3 119.52 61.89 118.23 61.89 118.23 60.48 114.59 60.48 114.59 61.89 113.3 61.89 113.3 63.3 112.18 63.3 112.18 64.72 113.3 64.72 113.3 66.13"/><polygon class="cls-12" points="133.64 66.13 134.91 66.13 134.91 67.54 136.29 67.54 136.29 68.95 138.19 68.95 138.19 70.37 139.97 70.37 139.97 71.78 141.06 71.78 142.16 71.78 142.16 70.37 143.95 70.37 143.95 68.95 145.85 68.95 145.85 67.54 147.22 67.54 147.22 66.13 148.49 66.13 148.49 64.72 149.7 64.72 149.7 63.3 148.39 63.3 148.39 61.89 147.09 61.89 147.09 60.48 143.46 60.48 143.46 61.89 142.16 61.89 142.16 63.3 141.06 63.3 139.87 63.3 139.87 61.89 138.57 61.89 138.57 60.48 134.94 60.48 134.94 61.89 133.64 61.89 133.64 63.3 132.53 63.3 132.53 64.72 133.64 64.72 133.64 66.13"/><polygon class="cls-12" points="153.99 66.13 155.25 66.13 155.25 67.54 156.63 67.54 156.63 68.95 158.53 68.95 158.53 70.37 160.32 70.37 160.32 71.78 161.4 71.78 162.51 71.78 162.51 70.37 164.29 70.37 164.29 68.95 166.19 68.95 166.19 67.54 167.57 67.54 167.57 66.13 168.84 66.13 168.84 64.72 170.04 64.72 170.04 63.3 168.73 63.3 168.73 61.89 167.44 61.89 167.44 60.48 163.8 60.48 163.8 61.89 162.51 61.89 162.51 63.3 161.4 63.3 160.21 63.3 160.21 61.89 158.92 61.89 158.92 60.48 155.28 60.48 155.28 61.89 153.99 61.89 153.99 63.3 152.87 63.3 152.87 64.72 153.99 64.72 153.99 66.13"/><polygon class="cls-12" points="113.28 85.92 114.54 85.92 114.54 87.33 115.92 87.33 115.92 88.74 117.82 88.74 117.82 90.15 119.61 90.15 119.61 91.57 120.69 91.57 121.8 91.57 121.8 90.15 123.58 90.15 123.58 88.74 125.48 88.74 125.48 87.33 126.86 87.33 126.86 85.92 128.12 85.92 128.12 84.5 129.33 84.5 129.33 83.09 128.02 83.09 128.02 81.68 126.72 81.68 126.72 80.27 123.09 80.27 123.09 81.68 121.8 81.68 121.8 83.09 120.69 83.09 119.5 83.09 119.5 81.68 118.2 81.68 118.2 80.27 114.57 80.27 114.57 81.68 113.28 81.68 113.28 83.09 112.16 83.09 112.16 84.5 113.28 84.5 113.28 85.92"/><polygon class="cls-12" points="133.62 85.92 134.89 85.92 134.89 87.33 136.27 87.33 136.27 88.74 138.16 88.74 138.16 90.15 139.95 90.15 139.95 91.57 141.03 91.57 142.14 91.57 142.14 90.15 143.93 90.15 143.93 88.74 145.82 88.74 145.82 87.33 147.2 87.33 147.2 85.92 148.47 85.92 148.47 84.5 149.68 84.5 149.68 83.09 148.37 83.09 148.37 81.68 147.07 81.68 147.07 80.27 143.44 80.27 143.44 81.68 142.14 81.68 142.14 83.09 141.03 83.09 139.85 83.09 139.85 81.68 138.55 81.68 138.55 80.27 134.92 80.27 134.92 81.68 133.62 81.68 133.62 83.09 132.5 83.09 132.5 84.5 133.62 84.5 133.62 85.92"/><polygon class="cls-12" points="153.97 85.92 155.23 85.92 155.23 87.33 156.61 87.33 156.61 88.74 158.51 88.74 158.51 90.15 160.29 90.15 160.29 91.57 161.38 91.57 162.49 91.57 162.49 90.15 164.27 90.15 164.27 88.74 166.17 88.74 166.17 87.33 167.55 87.33 167.55 85.92 168.81 85.92 168.81 84.5 170.02 84.5 170.02 83.09 168.71 83.09 168.71 81.68 167.41 81.68 167.41 80.27 163.78 80.27 163.78 81.68 162.49 81.68 162.49 83.09 161.38 83.09 160.19 83.09 160.19 81.68 158.9 81.68 158.9 80.27 155.26 80.27 155.26 81.68 153.97 81.68 153.97 83.09 152.85 83.09 152.85 84.5 153.97 84.5 153.97 85.92"/><text class="cls-1" transform="translate(0 107.42)"><tspan class="cls-8">W</tspan><tspan x="8.86" y="0">o</tspan><tspan class="cls-10" x="14.1" y="0">r</tspan><tspan x="17.48" y="0">dp</tspan><tspan class="cls-13" x="28.54" y="0">r</tspan><tspan x="31.91" y="0">ess</tspan></text><polygon class="cls-2" points="92.94 106.13 94.2 106.13 94.2 107.54 95.58 107.54 95.58 108.95 97.48 108.95 97.48 110.37 99.27 110.37 99.27 111.78 100.35 111.78 101.45 111.78 101.45 110.37 103.24 110.37 103.24 108.95 105.14 108.95 105.14 107.54 106.52 107.54 106.52 106.13 107.78 106.13 107.78 104.72 108.99 104.72 108.99 103.31 107.68 103.31 107.68 101.89 106.38 101.89 106.38 100.48 102.75 100.48 102.75 101.89 101.45 101.89 101.45 103.31 100.35 103.31 99.16 103.31 99.16 101.89 97.86 101.89 97.86 100.48 94.23 100.48 94.23 101.89 92.94 101.89 92.94 103.31 91.82 103.31 91.82 104.72 92.94 104.72 92.94 106.13"/><polygon class="cls-2" points="113.28 106.13 114.55 106.13 114.55 107.54 115.93 107.54 115.93 108.95 117.82 108.95 117.82 110.37 119.61 110.37 119.61 111.78 120.69 111.78 121.8 111.78 121.8 110.37 123.59 110.37 123.59 108.95 125.48 108.95 125.48 107.54 126.86 107.54 126.86 106.13 128.13 106.13 128.13 104.72 129.34 104.72 129.34 103.31 128.03 103.31 128.03 101.89 126.73 101.89 126.73 100.48 123.1 100.48 123.1 101.89 121.8 101.89 121.8 103.31 120.69 103.31 119.51 103.31 119.51 101.89 118.21 101.89 118.21 100.48 114.58 100.48 114.58 101.89 113.28 101.89 113.28 103.31 112.16 103.31 112.16 104.72 113.28 104.72 113.28 106.13"/><polygon class="cls-2" points="133.63 106.13 134.89 106.13 134.89 107.54 136.27 107.54 136.27 108.95 138.17 108.95 138.17 110.37 139.96 110.37 139.96 111.78 141.04 111.78 142.15 111.78 142.15 110.37 143.93 110.37 143.93 108.95 145.83 108.95 145.83 107.54 147.21 107.54 147.21 106.13 148.47 106.13 148.47 104.72 149.68 104.72 149.68 103.31 148.37 103.31 148.37 101.89 147.07 101.89 147.07 100.48 143.44 100.48 143.44 101.89 142.15 101.89 142.15 103.31 141.04 103.31 139.85 103.31 139.85 101.89 138.56 101.89 138.56 100.48 134.92 100.48 134.92 101.89 133.63 101.89 133.63 103.31 132.51 103.31 132.51 104.72 133.63 104.72 133.63 106.13"/><polygon class="cls-2" points="153.97 106.13 155.24 106.13 155.24 107.54 156.62 107.54 156.62 108.95 158.51 108.95 158.51 110.37 160.3 110.37 160.3 111.78 161.38 111.78 162.49 111.78 162.49 110.37 164.28 110.37 164.28 108.95 166.17 108.95 166.17 107.54 167.55 107.54 167.55 106.13 168.82 106.13 168.82 104.72 170.03 104.72 170.03 103.31 168.72 103.31 168.72 101.89 167.42 101.89 167.42 100.48 163.79 100.48 163.79 101.89 162.49 101.89 162.49 103.31 161.38 103.31 160.2 103.31 160.2 101.89 158.9 101.89 158.9 100.48 155.27 100.48 155.27 101.89 153.97 101.89 153.97 103.31 152.85 103.31 152.85 104.72 153.97 104.72 153.97 106.13"/><polygon class="cls-2" points="174.32 106.13 175.58 106.13 175.58 107.54 176.96 107.54 176.96 108.95 178.86 108.95 178.86 110.37 180.65 110.37 180.65 111.78 181.73 111.78 182.84 111.78 182.84 110.37 184.62 110.37 184.62 108.95 186.52 108.95 186.52 107.54 187.9 107.54 187.9 106.13 189.16 106.13 189.16 104.72 190.37 104.72 190.37 103.31 189.06 103.31 189.06 101.89 187.76 101.89 187.76 100.48 184.13 100.48 184.13 101.89 182.84 101.89 182.84 103.31 181.73 103.31 180.54 103.31 180.54 101.89 179.24 101.89 179.24 100.48 175.61 100.48 175.61 101.89 174.32 101.89 174.32 103.31 173.2 103.31 173.2 104.72 174.32 104.72 174.32 106.13"/><polygon class="cls-2" points="194.66 106.13 195.93 106.13 195.93 107.54 197.31 107.54 197.31 108.95 199.2 108.95 199.2 110.37 200.99 110.37 200.99 111.78 202.07 111.78 203.18 111.78 203.18 110.37 204.97 110.37 204.97 108.95 206.86 108.95 206.86 107.54 208.24 107.54 208.24 106.13 209.51 106.13 209.51 104.72 210.72 104.72 210.72 103.31 209.41 103.31 209.41 101.89 208.11 101.89 208.11 100.48 204.48 100.48 204.48 101.89 203.18 101.89 203.18 103.31 202.07 103.31 200.89 103.31 200.89 101.89 199.59 101.89 199.59 100.48 195.96 100.48 195.96 101.89 194.66 101.89 194.66 103.31 193.54 103.31 193.54 104.72 194.66 104.72 194.66 106.13"/><polygon class="cls-12" points="92.94 105.88 94.2 105.88 94.2 107.29 95.58 107.29 95.58 108.7 97.48 108.7 97.48 110.11 99.27 110.11 99.27 111.53 100.35 111.53 101.45 111.53 101.45 110.11 103.24 110.11 103.24 108.7 105.14 108.7 105.14 107.29 106.52 107.29 106.52 105.88 107.78 105.88 107.78 104.46 108.99 104.46 108.99 103.05 107.68 103.05 107.68 101.64 106.38 101.64 106.38 100.23 102.75 100.23 102.75 101.64 101.45 101.64 101.45 103.05 100.35 103.05 99.16 103.05 99.16 101.64 97.86 101.64 97.86 100.23 94.23 100.23 94.23 101.64 92.94 101.64 92.94 103.05 91.82 103.05 91.82 104.46 92.94 104.46 92.94 105.88"/><polygon class="cls-12" points="113.28 105.88 114.55 105.88 114.55 107.29 115.93 107.29 115.93 108.7 117.82 108.7 117.82 110.11 119.61 110.11 119.61 111.53 120.69 111.53 121.8 111.53 121.8 110.11 123.59 110.11 123.59 108.7 125.48 108.7 125.48 107.29 126.86 107.29 126.86 105.88 128.13 105.88 128.13 104.46 129.34 104.46 129.34 103.05 128.03 103.05 128.03 101.64 126.73 101.64 126.73 100.23 123.1 100.23 123.1 101.64 121.8 101.64 121.8 103.05 120.69 103.05 119.51 103.05 119.51 101.64 118.21 101.64 118.21 100.23 114.58 100.23 114.58 101.64 113.28 101.64 113.28 103.05 112.16 103.05 112.16 104.46 113.28 104.46 113.28 105.88"/><polygon class="cls-12" points="113.28 105.88 114.55 105.88 114.55 107.29 115.93 107.29 115.93 108.7 117.82 108.7 117.82 110.11 119.61 110.11 119.61 111.53 120.69 111.53 121.8 111.53 121.8 110.11 123.59 110.11 123.59 108.7 125.48 108.7 125.48 107.29 126.86 107.29 126.86 105.88 128.13 105.88 128.13 104.46 129.34 104.46 129.34 103.05 128.03 103.05 128.03 101.64 126.73 101.64 126.73 100.23 123.1 100.23 123.1 101.64 121.8 101.64 121.8 103.05 120.69 103.05 119.51 103.05 119.51 101.64 118.21 101.64 118.21 100.23 114.58 100.23 114.58 101.64 113.28 101.64 113.28 103.05 112.16 103.05 112.16 104.46 113.28 104.46 113.28 105.88"/><polygon class="cls-12" points="133.63 105.88 134.89 105.88 134.89 107.29 136.27 107.29 136.27 108.7 138.17 108.7 138.17 110.11 139.96 110.11 139.96 111.53 141.04 111.53 142.15 111.53 142.15 110.11 143.93 110.11 143.93 108.7 145.83 108.7 145.83 107.29 147.21 107.29 147.21 105.88 148.47 105.88 148.47 104.46 149.68 104.46 149.68 103.05 148.37 103.05 148.37 101.64 147.07 101.64 147.07 100.23 143.44 100.23 143.44 101.64 142.15 101.64 142.15 103.05 141.04 103.05 139.85 103.05 139.85 101.64 138.56 101.64 138.56 100.23 134.92 100.23 134.92 101.64 133.63 101.64 133.63 103.05 132.51 103.05 132.51 104.46 133.63 104.46 133.63 105.88"/><polygon class="cls-12" points="133.54 105.88 134.8 105.88 134.8 107.29 136.18 107.29 136.18 108.7 138.08 108.7 138.08 110.11 139.87 110.11 139.87 111.53 140.95 111.53 142.06 111.53 142.06 110.11 143.84 110.11 143.84 108.7 145.74 108.7 145.74 107.29 147.12 107.29 147.12 105.88 148.38 105.88 148.38 104.46 149.59 104.46 149.59 103.05 148.28 103.05 148.28 101.64 146.98 101.64 146.98 100.23 143.35 100.23 143.35 101.64 142.06 101.64 142.06 103.05 140.95 103.05 139.76 103.05 139.76 101.64 138.47 101.64 138.47 100.23 134.83 100.23 134.83 101.64 133.54 101.64 133.54 103.05 132.42 103.05 132.42 104.46 133.54 104.46 133.54 105.88"/><polygon class="cls-12" points="153.88 105.88 155.15 105.88 155.15 107.29 156.53 107.29 156.53 108.7 158.42 108.7 158.42 110.11 160.21 110.11 160.21 111.53 161.29 111.53 162.4 111.53 162.4 110.11 164.19 110.11 164.19 108.7 166.09 108.7 166.09 107.29 167.46 107.29 167.46 105.88 168.73 105.88 168.73 104.46 169.94 104.46 169.94 103.05 168.63 103.05 168.63 101.64 167.33 101.64 167.33 100.23 163.7 100.23 163.7 101.64 162.4 101.64 162.4 103.05 161.29 103.05 160.11 103.05 160.11 101.64 158.81 101.64 158.81 100.23 155.18 100.23 155.18 101.64 153.88 101.64 153.88 103.05 152.76 103.05 152.76 104.46 153.88 104.46 153.88 105.88"/><text class="cls-1" transform="translate(0.74 47.14)">Af<tspan class="cls-14" x="9.22" y="0">t</tspan><tspan x="12.57" y="0">er Ef</tspan><tspan class="cls-11" x="31.79" y="0">f</tspan><tspan x="34.83" y="0">e</tspan><tspan class="cls-15" x="39.88" y="0">c</tspan><tspan x="44.67" y="0">t</tspan></text><polygon class="cls-2" points="92.94 46.39 94.2 46.39 94.2 47.8 95.58 47.8 95.58 49.22 97.48 49.22 97.48 50.63 99.27 50.63 99.27 52.04 100.35 52.04 101.45 52.04 101.45 50.63 103.24 50.63 103.24 49.22 105.14 49.22 105.14 47.8 106.52 47.8 106.52 46.39 107.78 46.39 107.78 44.98 108.99 44.98 108.99 43.56 107.68 43.56 107.68 42.15 106.38 42.15 106.38 40.74 102.75 40.74 102.75 42.15 101.45 42.15 101.45 43.56 100.35 43.56 99.16 43.56 99.16 42.15 97.86 42.15 97.86 40.74 94.23 40.74 94.23 42.15 92.94 42.15 92.94 43.56 91.82 43.56 91.82 44.98 92.94 44.98 92.94 46.39"/><polygon class="cls-2" points="113.28 46.39 114.55 46.39 114.55 47.8 115.93 47.8 115.93 49.22 117.82 49.22 117.82 50.63 119.61 50.63 119.61 52.04 120.69 52.04 121.8 52.04 121.8 50.63 123.59 50.63 123.59 49.22 125.48 49.22 125.48 47.8 126.86 47.8 126.86 46.39 128.13 46.39 128.13 44.98 129.34 44.98 129.34 43.56 128.03 43.56 128.03 42.15 126.73 42.15 126.73 40.74 123.1 40.74 123.1 42.15 121.8 42.15 121.8 43.56 120.69 43.56 119.51 43.56 119.51 42.15 118.21 42.15 118.21 40.74 114.58 40.74 114.58 42.15 113.28 42.15 113.28 43.56 112.16 43.56 112.16 44.98 113.28 44.98 113.28 46.39"/><polygon class="cls-2" points="133.63 46.39 134.89 46.39 134.89 47.8 136.27 47.8 136.27 49.22 138.17 49.22 138.17 50.63 139.96 50.63 139.96 52.04 141.04 52.04 142.15 52.04 142.15 50.63 143.93 50.63 143.93 49.22 145.83 49.22 145.83 47.8 147.21 47.8 147.21 46.39 148.47 46.39 148.47 44.98 149.68 44.98 149.68 43.56 148.37 43.56 148.37 42.15 147.07 42.15 147.07 40.74 143.44 40.74 143.44 42.15 142.15 42.15 142.15 43.56 141.04 43.56 139.85 43.56 139.85 42.15 138.56 42.15 138.56 40.74 134.92 40.74 134.92 42.15 133.63 42.15 133.63 43.56 132.51 43.56 132.51 44.98 133.63 44.98 133.63 46.39"/><polygon class="cls-2" points="153.97 46.39 155.24 46.39 155.24 47.8 156.62 47.8 156.62 49.22 158.51 49.22 158.51 50.63 160.3 50.63 160.3 52.04 161.38 52.04 162.49 52.04 162.49 50.63 164.28 50.63 164.28 49.22 166.17 49.22 166.17 47.8 167.55 47.8 167.55 46.39 168.82 46.39 168.82 44.98 170.03 44.98 170.03 43.56 168.72 43.56 168.72 42.15 167.42 42.15 167.42 40.74 163.79 40.74 163.79 42.15 162.49 42.15 162.49 43.56 161.38 43.56 160.2 43.56 160.2 42.15 158.9 42.15 158.9 40.74 155.27 40.74 155.27 42.15 153.97 42.15 153.97 43.56 152.85 43.56 152.85 44.98 153.97 44.98 153.97 46.39"/><polygon class="cls-2" points="174.32 46.39 175.58 46.39 175.58 47.8 176.96 47.8 176.96 49.22 178.86 49.22 178.86 50.63 180.65 50.63 180.65 52.04 181.73 52.04 182.84 52.04 182.84 50.63 184.62 50.63 184.62 49.22 186.52 49.22 186.52 47.8 187.9 47.8 187.9 46.39 189.16 46.39 189.16 44.98 190.37 44.98 190.37 43.56 189.06 43.56 189.06 42.15 187.76 42.15 187.76 40.74 184.13 40.74 184.13 42.15 182.84 42.15 182.84 43.56 181.73 43.56 180.54 43.56 180.54 42.15 179.24 42.15 179.24 40.74 175.61 40.74 175.61 42.15 174.32 42.15 174.32 43.56 173.2 43.56 173.2 44.98 174.32 44.98 174.32 46.39"/><polygon class="cls-2" points="194.66 46.39 195.93 46.39 195.93 47.8 197.31 47.8 197.31 49.22 199.2 49.22 199.2 50.63 200.99 50.63 200.99 52.04 202.07 52.04 203.18 52.04 203.18 50.63 204.97 50.63 204.97 49.22 206.86 49.22 206.86 47.8 208.24 47.8 208.24 46.39 209.51 46.39 209.51 44.98 210.72 44.98 210.72 43.56 209.41 43.56 209.41 42.15 208.11 42.15 208.11 40.74 204.48 40.74 204.48 42.15 203.18 42.15 203.18 43.56 202.07 43.56 200.89 43.56 200.89 42.15 199.59 42.15 199.59 40.74 195.96 40.74 195.96 42.15 194.66 42.15 194.66 43.56 193.54 43.56 193.54 44.98 194.66 44.98 194.66 46.39"/><polygon class="cls-12" points="92.94 46.05 94.2 46.05 94.2 47.46 95.58 47.46 95.58 48.87 97.48 48.87 97.48 50.28 99.27 50.28 99.27 51.69 100.35 51.69 101.45 51.69 101.45 50.28 103.24 50.28 103.24 48.87 105.14 48.87 105.14 47.46 106.52 47.46 106.52 46.05 107.78 46.05 107.78 44.63 108.99 44.63 108.99 43.22 107.68 43.22 107.68 41.81 106.38 41.81 106.38 40.4 102.75 40.4 102.75 41.81 101.45 41.81 101.45 43.22 100.35 43.22 99.16 43.22 99.16 41.81 97.86 41.81 97.86 40.4 94.23 40.4 94.23 41.81 92.94 41.81 92.94 43.22 91.82 43.22 91.82 44.63 92.94 44.63 92.94 46.05"/><polygon class="cls-12" points="113.28 46.05 114.55 46.05 114.55 47.46 115.93 47.46 115.93 48.87 117.82 48.87 117.82 50.28 119.61 50.28 119.61 51.69 120.69 51.69 121.8 51.69 121.8 50.28 123.59 50.28 123.59 48.87 125.48 48.87 125.48 47.46 126.86 47.46 126.86 46.05 128.13 46.05 128.13 44.63 129.34 44.63 129.34 43.22 128.03 43.22 128.03 41.81 126.73 41.81 126.73 40.4 123.1 40.4 123.1 41.81 121.8 41.81 121.8 43.22 120.69 43.22 119.51 43.22 119.51 41.81 118.21 41.81 118.21 40.4 114.58 40.4 114.58 41.81 113.28 41.81 113.28 43.22 112.16 43.22 112.16 44.63 113.28 44.63 113.28 46.05"/><polygon class="cls-12" points="133.63 46.05 134.89 46.05 134.89 47.46 136.27 47.46 136.27 48.87 138.17 48.87 138.17 50.28 139.96 50.28 139.96 51.69 141.04 51.69 142.15 51.69 142.15 50.28 143.93 50.28 143.93 48.87 145.83 48.87 145.83 47.46 147.21 47.46 147.21 46.05 148.47 46.05 148.47 44.63 149.68 44.63 149.68 43.22 148.37 43.22 148.37 41.81 147.07 41.81 147.07 40.4 143.44 40.4 143.44 41.81 142.15 41.81 142.15 43.22 141.04 43.22 139.85 43.22 139.85 41.81 138.56 41.81 138.56 40.4 134.92 40.4 134.92 41.81 133.63 41.81 133.63 43.22 132.51 43.22 132.51 44.63 133.63 44.63 133.63 46.05"/><polygon class="cls-12" points="113.3 46.05 114.56 46.05 114.56 47.46 115.94 47.46 115.94 48.87 117.84 48.87 117.84 50.28 119.63 50.28 119.63 51.69 120.71 51.69 121.82 51.69 121.82 50.28 123.6 50.28 123.6 48.87 125.5 48.87 125.5 47.46 126.88 47.46 126.88 46.05 128.15 46.05 128.15 44.63 129.35 44.63 129.35 43.22 128.04 43.22 128.04 41.81 126.75 41.81 126.75 40.4 123.11 40.4 123.11 41.81 121.82 41.81 121.82 43.22 120.71 43.22 119.52 43.22 119.52 41.81 118.23 41.81 118.23 40.4 114.59 40.4 114.59 41.81 113.3 41.81 113.3 43.22 112.18 43.22 112.18 44.63 113.3 44.63 113.3 46.05"/><polygon class="cls-12" points="133.64 46.05 134.91 46.05 134.91 47.46 136.29 47.46 136.29 48.87 138.19 48.87 138.19 50.28 139.97 50.28 139.97 51.69 141.06 51.69 142.16 51.69 142.16 50.28 143.95 50.28 143.95 48.87 145.85 48.87 145.85 47.46 147.22 47.46 147.22 46.05 148.49 46.05 148.49 44.63 149.7 44.63 149.7 43.22 148.39 43.22 148.39 41.81 147.09 41.81 147.09 40.4 143.46 40.4 143.46 41.81 142.16 41.81 142.16 43.22 141.06 43.22 139.87 43.22 139.87 41.81 138.57 41.81 138.57 40.4 134.94 40.4 134.94 41.81 133.64 41.81 133.64 43.22 132.53 43.22 132.53 44.63 133.64 44.63 133.64 46.05"/><polygon class="cls-12" points="153.99 46.05 155.25 46.05 155.25 47.46 156.63 47.46 156.63 48.87 158.53 48.87 158.53 50.28 160.32 50.28 160.32 51.69 161.4 51.69 162.51 51.69 162.51 50.28 164.29 50.28 164.29 48.87 166.19 48.87 166.19 47.46 167.57 47.46 167.57 46.05 168.84 46.05 168.84 44.63 170.04 44.63 170.04 43.22 168.73 43.22 168.73 41.81 167.44 41.81 167.44 40.4 163.8 40.4 163.8 41.81 162.51 41.81 162.51 43.22 161.4 43.22 160.21 43.22 160.21 41.81 158.92 41.81 158.92 40.4 155.28 40.4 155.28 41.81 153.99 41.81 153.99 43.22 152.87 43.22 152.87 44.63 153.99 44.63 153.99 46.05"/></g></g></svg>