<svg xmlns="http://www.w3.org/2000/svg" viewBox="0 0 163.82 137.74"><defs><style>.cls-1{fill:none;stroke:#5bc5f2;stroke-miterlimit:10;}.cls-2,.cls-3{fill:#575751;}.cls-3{font-size:7px;font-family:Montserrat-Light, Montserrat;font-weight:300;}.cls-4{letter-spacing:-0.02em;}.cls-5{letter-spacing:-0.01em;}.cls-6{letter-spacing:0em;}.cls-7{letter-spacing:0.01em;}.cls-8{fill:#585852;}.cls-9{letter-spacing:-0.02em;}.cls-10{letter-spacing:0em;}.cls-11{fill:#575756;}</style></defs><g id="Calque_2" data-name="Calque 2"><g id="Calque_1-2" data-name="Calque 1"><circle class="cls-1" cx="32.49" cy="31.63" r="30.39"/><path class="cls-2" d="M38.09,20.23a6.38,6.38,0,0,1,6.4,6.4A6.4,6.4,0,0,1,38.09,33a6.27,6.27,0,0,1-4.23-1.6H31.11A6.27,6.27,0,0,1,26.88,33a6.4,6.4,0,0,1-6.4-6.41,6.38,6.38,0,0,1,6.4-6.4Zm-7.2,7.2v-1.6a.38.38,0,0,0-.12-.29.39.39,0,0,0-.28-.11H28.08V23a.38.38,0,0,0-.11-.29.4.4,0,0,0-.29-.11h-1.6a.44.44,0,0,0-.29.11.42.42,0,0,0-.11.29v2.4h-2.4a.38.38,0,0,0-.4.4v1.6a.4.4,0,0,0,.11.29.38.38,0,0,0,.29.11h2.4v2.4a.4.4,0,0,0,.11.29.39.39,0,0,0,.29.11h1.6a.38.38,0,0,0,.4-.4v-2.4h2.41a.36.36,0,0,0,.28-.11A.37.37,0,0,0,30.89,27.43Zm6.73,1.93a1.53,1.53,0,0,0,.47-1.13,1.6,1.6,0,0,0-2.73-1.13,1.51,1.51,0,0,0-.47,1.13,1.5,1.5,0,0,0,.47,1.13,1.59,1.59,0,0,0,2.26,0Zm3.2-3.2a1.59,1.59,0,0,0,0-2.26,1.6,1.6,0,1,0-2.26,2.26,1.59,1.59,0,0,0,2.26,0Z"/><text class="cls-3" transform="translate(12.07 45.1)">Jeu<tspan class="cls-4" x="12.3" y="0">x</tspan><tspan class="cls-5" x="15.78" y="0">-</tspan><tspan class="cls-6" x="18.37" y="0">vidéos</tspan></text><circle class="cls-1" cx="132.93" cy="30.89" r="30.39"/><text class="cls-3" transform="translate(123.44 44.36)">Spo<tspan class="cls-7" x="13.33" y="0">r</tspan><tspan x="16.19" y="0">t</tspan></text><circle class="cls-1" cx="132.93" cy="106.85" r="30.39"/><g id="Expanded"><path class="cls-8" d="M139.28,112.3H127a.51.51,0,0,1-.51-.48l-1-12.9a4.1,4.1,0,0,1-3.62-4.08A4.21,4.21,0,0,1,126,90.66a3.46,3.46,0,0,1,1.35.27c.72-2,3-3.27,5.82-3.27A5.91,5.91,0,0,1,138.84,91a3.56,3.56,0,0,1,1.45-.31,4.21,4.21,0,0,1,4.12,4.18,4.1,4.1,0,0,1-3.63,4.08l-1,12.9A.51.51,0,0,1,139.28,112.3Zm-11.85-1H138.8l1-12.87a.52.52,0,0,1,.51-.48,3.08,3.08,0,0,0,3.08-3.08,3.2,3.2,0,0,0-3.09-3.15,2.48,2.48,0,0,0-1.4.42.54.54,0,0,1-.43.06.52.52,0,0,1-.32-.28,5,5,0,0,0-5-3.2c-2.65,0-4.65,1.23-5,3.08a.51.51,0,0,1-.78.34,2.52,2.52,0,0,0-1.4-.42,3.2,3.2,0,0,0-3.1,3.15,3.08,3.08,0,0,0,3.08,3.08.51.51,0,0,1,.51.48Z"/><path class="cls-8" d="M139.6,108.19h-13a.52.52,0,1,1,0-1h13a.52.52,0,0,1,0,1Z"/><path class="cls-8" d="M130.55,108.19a.51.51,0,0,1-.51-.51v-4.11a.51.51,0,0,1,1,0v4.11A.51.51,0,0,1,130.55,108.19Z"/><path class="cls-8" d="M133.12,108.19a.51.51,0,0,1-.52-.51v-5.14a.52.52,0,0,1,1,0v5.14A.51.51,0,0,1,133.12,108.19Z"/><path class="cls-8" d="M135.68,108.19a.51.51,0,0,1-.51-.51v-4.11a.52.52,0,0,1,1,0v4.11A.51.51,0,0,1,135.68,108.19Z"/></g><text class="cls-3" transform="translate(120.11 122.87)"><tspan class="cls-9">C</tspan><tspan x="4.88" y="0">uisi</tspan><tspan class="cls-10" x="16.56" y="0">n</tspan><tspan x="21.28" y="0">e</tspan></text><path class="cls-2" d="M40.46,92.68v14a1.68,1.68,0,0,1-.43,1.11,2.87,2.87,0,0,1-1.07.75,7.09,7.09,0,0,1-1.29.4,5.85,5.85,0,0,1-1.2.13,5.71,5.71,0,0,1-1.2-.13,7.09,7.09,0,0,1-1.29-.4,2.91,2.91,0,0,1-1.08-.75,1.67,1.67,0,0,1-.42-1.11,1.64,1.64,0,0,1,.42-1.11,2.82,2.82,0,0,1,1.08-.76,7,7,0,0,1,1.29-.39,5.75,5.75,0,0,1,1.2-.14,5.84,5.84,0,0,1,2.39.49V98L29.29,101v8.84a1.67,1.67,0,0,1-.42,1.11,2.91,2.91,0,0,1-1.08.75,7.09,7.09,0,0,1-1.29.4,5.71,5.71,0,0,1-1.2.13,5.85,5.85,0,0,1-1.2-.13,7.09,7.09,0,0,1-1.29-.4,2.87,2.87,0,0,1-1.07-.75,1.68,1.68,0,0,1-.43-1.11,1.64,1.64,0,0,1,.43-1.11,2.78,2.78,0,0,1,1.07-.76,7,7,0,0,1,1.29-.39,5.79,5.79,0,0,1,3.6.35v-12a1.11,1.11,0,0,1,.23-.7,1.24,1.24,0,0,1,.61-.45l10.37-3.19a1.23,1.23,0,0,1,.35,0,1.2,1.2,0,0,1,1.2,1.2Z"/><circle class="cls-1" cx="30.89" cy="106.85" r="30.39"/><text class="cls-3" transform="translate(15.82 121.97)">Musique</text><path class="cls-11" d="M143.66,21.55a11.28,11.28,0,0,0-10.72-7.8,11.3,11.3,0,0,0-10.73,14.76,11.28,11.28,0,0,0,21.45-7Zm-3.39,8.81-2.38.29-2-2.77L137,24.46l3.23-1L142,25.11a9,9,0,0,1-1,4.05,8.37,8.37,0,0,1-.76,1.2Zm0-10.71-.47,2.42-3.22,1L133.66,21V17.6l2.16-1.2a9.15,9.15,0,0,1,4.45,3.25Zm-10.21-3.24,2.15,1.19V21l-2.92,2.12-3.21-1-.46-2.39a8.94,8.94,0,0,1,4.44-3.27ZM128,30.65l-2.42-.3a9.17,9.17,0,0,1-1.72-5.24l1.78-1.66,3.23,1,1.1,3.38-2,2.81Zm2.19,3-1-2.18,2-2.81h3.58l2,2.81-1,2.18A9,9,0,0,1,130.17,33.69Z"/></g></g></svg>