<svg xmlns="http://www.w3.org/2000/svg" viewBox="0 0 118.9 11.55"><defs><style>.cls-1{fill:#b5b5ac;}.cls-2{fill:#575751;}</style></defs><g id="Calque_2" data-name="Calque 2"><g id="Calque_1-2" data-name="Calque 1"><polygon class="cls-1" points="1.12 5.91 2.38 5.91 2.38 7.32 3.76 7.32 3.76 8.73 5.66 8.73 5.66 10.14 7.45 10.14 7.45 11.55 8.53 11.55 9.64 11.55 9.64 10.14 11.42 10.14 11.42 8.73 13.32 8.73 13.32 7.32 14.7 7.32 14.7 5.91 15.96 5.91 15.96 4.49 17.17 4.49 17.17 3.08 15.86 3.08 15.86 1.67 14.56 1.67 14.56 0.26 10.93 0.26 10.93 1.67 9.64 1.67 9.64 3.08 8.53 3.08 7.34 3.08 7.34 1.67 6.05 1.67 6.05 0.26 2.41 0.26 2.41 1.67 1.12 1.67 1.12 3.08 0 3.08 0 4.49 1.12 4.49 1.12 5.91"/><polygon class="cls-1" points="21.46 5.91 22.73 5.91 22.73 7.32 24.11 7.32 24.11 8.73 26 8.73 26 10.14 27.79 10.14 27.79 11.55 28.87 11.55 29.98 11.55 29.98 10.14 31.77 10.14 31.77 8.73 33.67 8.73 33.67 7.32 35.04 7.32 35.04 5.91 36.31 5.91 36.31 4.49 37.52 4.49 37.52 3.08 36.21 3.08 36.21 1.67 34.91 1.67 34.91 0.26 31.28 0.26 31.28 1.67 29.98 1.67 29.98 3.08 28.87 3.08 27.69 3.08 27.69 1.67 26.39 1.67 26.39 0.26 22.76 0.26 22.76 1.67 21.46 1.67 21.46 3.08 20.34 3.08 20.34 4.49 21.46 4.49 21.46 5.91"/><polygon class="cls-1" points="41.81 5.91 43.07 5.91 43.07 7.32 44.45 7.32 44.45 8.73 46.35 8.73 46.35 10.14 48.14 10.14 48.14 11.55 49.22 11.55 50.33 11.55 50.33 10.14 52.11 10.14 52.11 8.73 54.01 8.73 54.01 7.32 55.39 7.32 55.39 5.91 56.66 5.91 56.66 4.49 57.86 4.49 57.86 3.08 56.55 3.08 56.55 1.67 55.26 1.67 55.26 0.26 51.62 0.26 51.62 1.67 50.33 1.67 50.33 3.08 49.22 3.08 48.03 3.08 48.03 1.67 46.74 1.67 46.74 0.26 43.1 0.26 43.1 1.67 41.81 1.67 41.81 3.08 40.69 3.08 40.69 4.49 41.81 4.49 41.81 5.91"/><polygon class="cls-1" points="62.15 5.91 63.42 5.91 63.42 7.32 64.8 7.32 64.8 8.73 66.69 8.73 66.69 10.14 68.48 10.14 68.48 11.55 69.56 11.55 70.67 11.55 70.67 10.14 72.46 10.14 72.46 8.73 74.36 8.73 74.36 7.32 75.73 7.32 75.73 5.91 77 5.91 77 4.49 78.21 4.49 78.21 3.08 76.9 3.08 76.9 1.67 75.6 1.67 75.6 0.26 71.97 0.26 71.97 1.67 70.67 1.67 70.67 3.08 69.56 3.08 68.38 3.08 68.38 1.67 67.08 1.67 67.08 0.26 63.45 0.26 63.45 1.67 62.15 1.67 62.15 3.08 61.03 3.08 61.03 4.49 62.15 4.49 62.15 5.91"/><polygon class="cls-1" points="82.5 5.91 83.76 5.91 83.76 7.32 85.14 7.32 85.14 8.73 87.04 8.73 87.04 10.14 88.83 10.14 88.83 11.55 89.91 11.55 91.02 11.55 91.02 10.14 92.8 10.14 92.8 8.73 94.7 8.73 94.7 7.32 96.08 7.32 96.08 5.91 97.34 5.91 97.34 4.49 98.55 4.49 98.55 3.08 97.24 3.08 97.24 1.67 95.94 1.67 95.94 0.26 92.31 0.26 92.31 1.67 91.02 1.67 91.02 3.08 89.91 3.08 88.72 3.08 88.72 1.67 87.43 1.67 87.43 0.26 83.79 0.26 83.79 1.67 82.5 1.67 82.5 3.08 81.38 3.08 81.38 4.49 82.5 4.49 82.5 5.91"/><polygon class="cls-1" points="102.84 5.91 104.11 5.91 104.11 7.32 105.49 7.32 105.49 8.73 107.39 8.73 107.39 10.14 109.17 10.14 109.17 11.55 110.25 11.55 111.36 11.55 111.36 10.14 113.15 10.14 113.15 8.73 115.05 8.73 115.05 7.32 116.42 7.32 116.42 5.91 117.69 5.91 117.69 4.49 118.9 4.49 118.9 3.08 117.59 3.08 117.59 1.67 116.29 1.67 116.29 0.26 112.66 0.26 112.66 1.67 111.36 1.67 111.36 3.08 110.25 3.08 109.07 3.08 109.07 1.67 107.77 1.67 107.77 0.26 104.14 0.26 104.14 1.67 102.84 1.67 102.84 3.08 101.72 3.08 101.72 4.49 102.84 4.49 102.84 5.91"/><polygon class="cls-2" points="1.12 5.65 2.38 5.65 2.38 7.06 3.76 7.06 3.76 8.47 5.66 8.47 5.66 9.89 7.45 9.89 7.45 11.3 8.53 11.3 9.64 11.3 9.64 9.89 11.42 9.89 11.42 8.47 13.32 8.47 13.32 7.06 14.7 7.06 14.7 5.65 15.96 5.65 15.96 4.24 17.17 4.24 17.17 2.83 15.86 2.83 15.86 1.41 14.56 1.41 14.56 0 10.93 0 10.93 1.41 9.64 1.41 9.64 2.83 8.53 2.83 7.34 2.83 7.34 1.41 6.05 1.41 6.05 0 2.41 0 2.41 1.41 1.12 1.41 1.12 2.83 0 2.83 0 4.24 1.12 4.24 1.12 5.65"/><polygon class="cls-2" points="21.46 5.65 22.73 5.65 22.73 7.06 24.11 7.06 24.11 8.47 26 8.47 26 9.89 27.79 9.89 27.79 11.3 28.87 11.3 29.98 11.3 29.98 9.89 31.77 9.89 31.77 8.47 33.67 8.47 33.67 7.06 35.04 7.06 35.04 5.65 36.31 5.65 36.31 4.24 37.52 4.24 37.52 2.83 36.21 2.83 36.21 1.41 34.91 1.41 34.91 0 31.28 0 31.28 1.41 29.98 1.41 29.98 2.83 28.87 2.83 27.69 2.83 27.69 1.41 26.39 1.41 26.39 0 22.76 0 22.76 1.41 21.46 1.41 21.46 2.83 20.34 2.83 20.34 4.24 21.46 4.24 21.46 5.65"/><polygon class="cls-2" points="21.46 5.65 22.73 5.65 22.73 7.06 24.11 7.06 24.11 8.47 26 8.47 26 9.89 27.79 9.89 27.79 11.3 28.87 11.3 29.98 11.3 29.98 9.89 31.77 9.89 31.77 8.47 33.67 8.47 33.67 7.06 35.04 7.06 35.04 5.65 36.31 5.65 36.31 4.24 37.52 4.24 37.52 2.83 36.21 2.83 36.21 1.41 34.91 1.41 34.91 0 31.28 0 31.28 1.41 29.98 1.41 29.98 2.83 28.87 2.83 27.69 2.83 27.69 1.41 26.39 1.41 26.39 0 22.76 0 22.76 1.41 21.46 1.41 21.46 2.83 20.34 2.83 20.34 4.24 21.46 4.24 21.46 5.65"/><polygon class="cls-2" points="41.81 5.65 43.07 5.65 43.07 7.06 44.45 7.06 44.45 8.47 46.35 8.47 46.35 9.89 48.14 9.89 48.14 11.3 49.22 11.3 50.33 11.3 50.33 9.89 52.11 9.89 52.11 8.47 54.01 8.47 54.01 7.06 55.39 7.06 55.39 5.65 56.66 5.65 56.66 4.24 57.86 4.24 57.86 2.83 56.55 2.83 56.55 1.41 55.26 1.41 55.26 0 51.62 0 51.62 1.41 50.33 1.41 50.33 2.83 49.22 2.83 48.03 2.83 48.03 1.41 46.74 1.41 46.74 0 43.1 0 43.1 1.41 41.81 1.41 41.81 2.83 40.69 2.83 40.69 4.24 41.81 4.24 41.81 5.65"/></g></g></svg>