<svg xmlns="http://www.w3.org/2000/svg" viewBox="0 0 238.54 126.8"><defs><style>.cls-1{font-size:10px;fill:#1d1d1b;font-family:RetroGaming, Retro Gaming;letter-spacing:-0.01em;}.cls-2,.cls-4{fill:none;}.cls-2{stroke:#5bc5f2;stroke-miterlimit:10;}.cls-3{fill:#575751;}.cls-4{stroke:#575751;stroke-linecap:round;stroke-linejoin:round;}.cls-5{fill:#fff;}</style></defs><g id="Calque_2" data-name="Calque 2"><g id="Calque_1-2" data-name="Calque 1"><text class="cls-1" transform="translate(168.88 124.07)">Design</text><circle class="cls-2" cx="189.49" cy="49.29" r="48.55"/><path class="cls-3" d="M187.13,51a5,5,0,0,0,3.21,2.56v.89a5.69,5.69,0,0,1-1.61,4.32,5.89,5.89,0,0,1-4.35,1.67,6,6,0,0,1-2.71-.58,4.78,4.78,0,0,1-1.9-1.59A7.27,7.27,0,0,1,178.7,56a10,10,0,0,1-.36-2.74l.51.37.77.56a7.66,7.66,0,0,0,.74.45,1.25,1.25,0,0,0,.57.22.66.66,0,0,0,.68-.47,6.78,6.78,0,0,1,.72-1.4,4.41,4.41,0,0,1,.87-.94,3.57,3.57,0,0,1,1.09-.6,6.72,6.72,0,0,1,1.29-.31A12.53,12.53,0,0,1,187.13,51Zm9.71-12.22a2.34,2.34,0,0,1,1.62-.67,2.23,2.23,0,0,1,1.53.58,1.85,1.85,0,0,1,.65,1.45,4.22,4.22,0,0,1-.56,1.88q-4.14,7.84-5.79,9.37a3.87,3.87,0,0,1-2.72,1.14,3.68,3.68,0,0,1-2.7-1.15,3.78,3.78,0,0,1-1.12-2.74A3.44,3.44,0,0,1,188.89,46l8-7.22Z"/><line class="cls-4" x1="189.49" y1="108.01" x2="189.49" y2="77.26"/><path class="cls-5" d="M193.25,77.48a3.76,3.76,0,1,0-3.76,3.76A3.76,3.76,0,0,0,193.25,77.48Z"/><path class="cls-3" d="M193.75,77.48a4.26,4.26,0,1,1-4.26-4.26,4.26,4.26,0,0,1,4.26,4.26Zm-7.52,0a3.26,3.26,0,1,0,3.26-3.26,3.26,3.26,0,0,0-3.26,3.26Z"/><text class="cls-1" transform="translate(92.86 124.07)">Écriture</text><circle class="cls-2" cx="119.27" cy="49.05" r="48.55"/><path class="cls-3" d="M121.32,41.11l5.89,5.9L113.46,60.75h-5.89V54.86Zm-8.68,17.68L115,56.41l-3.11-3.11-2.38,2.38v1.14h2v2Zm9-14.06a.46.46,0,1,0-.65-.65l-7.16,7.16a.42.42,0,0,0,0,.67.41.41,0,0,0,.67,0l7.16-7.16Zm8.78-.92-1.89,1.89-5.89-5.89,1.89-1.89a2,2,0,0,1,2.78,0L130.4,41a2,2,0,0,1,0,2.78Z"/><line class="cls-4" x1="117.35" y1="108.01" x2="117.35" y2="77.26"/><path class="cls-5" d="M121.11,77.48a3.76,3.76,0,1,0-3.76,3.76A3.76,3.76,0,0,0,121.11,77.48Z"/><path class="cls-3" d="M121.61,77.48a4.26,4.26,0,1,1-4.26-4.26,4.27,4.27,0,0,1,4.26,4.26Zm-7.52,0a3.26,3.26,0,1,0,3.26-3.26,3.26,3.26,0,0,0-3.26,3.26Z"/><text class="cls-1" transform="translate(17.74 124.07)">Créativité</text><circle class="cls-2" cx="49.05" cy="49.05" r="48.55"/><line class="cls-4" x1="49.05" y1="108.01" x2="49.05" y2="77.26"/><path class="cls-5" d="M52.81,77.48a3.76,3.76,0,1,0-3.76,3.76A3.76,3.76,0,0,0,52.81,77.48Z"/><path class="cls-3" d="M53.31,77.48a4.26,4.26,0,1,1-4.26-4.26,4.26,4.26,0,0,1,4.26,4.26Zm-7.52,0a3.26,3.26,0,1,0,3.26-3.26,3.26,3.26,0,0,0-3.26,3.26Z"/><path class="cls-3" d="M48.43,35.29a9.64,9.64,0,0,0-5.57,17.14v5a5,5,0,0,0,5,5h2a5,5,0,0,0,5-5v-5a9.64,9.64,0,0,0-6.51-17.14Zm4.93,15.84-.42.3v6a3,3,0,0,1-3,3h-2a3,3,0,0,1-3-3v-6l-.42-.3a7.64,7.64,0,0,1,4.09-13.84h.37a7.64,7.64,0,0,1,4.46,13.85Z"/><path class="cls-3" d="M70.56,44.64H63.23a.5.5,0,0,0-.5.5.5.5,0,0,0,.5.5h7.33a.51.51,0,0,0,.5-.5A.5.5,0,0,0,70.56,44.64Z"/><path class="cls-3" d="M34.88,44.64H27.54a.5.5,0,0,0-.5.5.51.51,0,0,0,.5.5h7.34a.51.51,0,0,0,.5-.5A.5.5,0,0,0,34.88,44.64Z"/><path class="cls-3" d="M49.05,32.35a.5.5,0,0,0,.5-.5V24.52a.5.5,0,1,0-1,0v7.33A.5.5,0,0,0,49.05,32.35Z"/><path class="cls-3" d="M64.61,29.58a.5.5,0,0,0-.71,0l-5.18,5.18a.5.5,0,0,0,0,.71.52.52,0,0,0,.71,0l5.18-5.19A.48.48,0,0,0,64.61,29.58Z"/><path class="cls-3" d="M39.38,34.76,34.2,29.58a.5.5,0,0,0-.71,0,.48.48,0,0,0,0,.7l5.18,5.19a.54.54,0,0,0,.36.14.52.52,0,0,0,.35-.14A.5.5,0,0,0,39.38,34.76Z"/><path class="cls-3" d="M48.8,39a6,6,0,0,0-2.52,11.41V56a2.62,2.62,0,0,0,5.23,0V50.27A6,6,0,0,0,48.8,39Z"/></g></g></svg>